<svg width="29" height="28" viewBox="0 0 29 28" fill="none" xmlns="http://www.w3.org/2000/svg">
<path d="M25.4353 19.4601C24.8316 20.801 24.5406 21.4004 23.7641 22.5838C22.6769 24.2376 21.1435 26.3026 19.2491 26.3157C17.5625 26.331 17.1272 25.2154 14.8369 25.2351C12.5488 25.246 12.0719 26.3376 10.3831 26.3201C8.48659 26.3026 7.03627 24.4432 5.94909 22.7916C2.90846 18.1607 2.5869 12.7313 4.46596 9.84381C5.79596 7.79631 7.89815 6.59318 9.87346 6.59318C11.886 6.59318 13.1503 7.69787 14.8128 7.69787C16.4272 7.69787 17.4094 6.591 19.7369 6.591C21.4956 6.591 23.355 7.54912 24.685 9.20287C20.3363 11.5872 21.0428 17.7976 25.4353 19.4601ZM17.9694 4.74256C18.816 3.65537 19.4591 2.12193 19.225 0.560059C17.8447 0.654121 16.2303 1.53568 15.2875 2.67756C14.4322 3.71881 13.7235 5.26318 13.9991 6.75725C15.5063 6.80537 17.066 5.90631 17.9694 4.74256Z" fill="black"/>
</svg>
