<svg width="32" height="32" viewBox="0 0 32 32" fill="none" xmlns="http://www.w3.org/2000/svg">
<path d="M29.3332 14.6666H5.88521L12.9425 7.60928C13.0699 7.48628 13.1715 7.33916 13.2413 7.17648C13.3112 7.01381 13.348 6.83885 13.3495 6.66181C13.3511 6.48477 13.3173 6.3092 13.2503 6.14534C13.1833 5.98148 13.0843 5.83261 12.9591 5.70742C12.8339 5.58223 12.685 5.48322 12.5212 5.41618C12.3573 5.34914 12.1817 5.31541 12.0047 5.31694C11.8276 5.31848 11.6527 5.35527 11.49 5.42514C11.3273 5.49502 11.1802 5.5966 11.0572 5.72395L1.72388 15.0573C1.47392 15.3073 1.3335 15.6464 1.3335 15.9999C1.3335 16.3535 1.47392 16.6926 1.72388 16.9426L11.0572 26.2759C11.3087 26.5188 11.6455 26.6532 11.9951 26.6502C12.3447 26.6471 12.6791 26.5069 12.9263 26.2597C13.1735 26.0125 13.3137 25.6781 13.3168 25.3285C13.3198 24.9789 13.1854 24.6421 12.9425 24.3906L5.88521 17.3333H29.3332C29.6868 17.3333 30.026 17.1928 30.276 16.9428C30.5261 16.6927 30.6665 16.3536 30.6665 15.9999C30.6665 15.6463 30.5261 15.3072 30.276 15.0571C30.026 14.8071 29.6868 14.6666 29.3332 14.6666Z" fill="black"/>
</svg>
