<svg width="24" height="25" viewBox="0 0 24 25" fill="none" xmlns="http://www.w3.org/2000/svg">
<g clip-path="url(#clip0_290_3566)">
<path d="M10.9844 24.6416C8.91748 24.6416 7.23438 22.9596 7.23438 20.8916C7.23438 20.4776 7.57037 20.1416 7.98438 20.1416C8.39838 20.1416 8.73438 20.4776 8.73438 20.8916C8.73438 22.1327 9.74438 23.1416 10.9844 23.1416C12.2244 23.1416 13.2344 22.1327 13.2344 20.8916C13.2344 20.4776 13.5704 20.1416 13.9844 20.1416C14.3984 20.1416 14.7344 20.4776 14.7344 20.8916C14.7344 22.9596 13.0515 24.6416 10.9844 24.6416Z" fill="#666666"/>
<path d="M19.2343 21.6416H2.73431C1.76935 21.6416 0.984375 20.8566 0.984375 19.8917C0.984375 19.3795 1.2074 18.8947 1.59631 18.5616C1.6214 18.5396 1.64832 18.5197 1.67633 18.5015C3.14429 17.2205 3.98438 15.3776 3.98438 13.4315V10.6415C3.98438 6.78168 7.12537 3.6416 10.9843 3.6416C11.1443 3.6416 11.3174 3.64453 11.4774 3.67163C11.8863 3.73956 12.1624 4.12665 12.0943 4.53461C12.0264 4.94257 11.6323 5.21869 11.2313 5.15057C11.1513 5.13757 11.0634 5.1416 10.9843 5.1416C7.95245 5.1416 5.48438 7.60858 5.48438 10.6415V13.4315C5.48438 15.8476 4.42529 18.1337 2.58142 19.7025C2.56641 19.7146 2.55341 19.7256 2.53729 19.7366C2.51038 19.7706 2.48438 19.8226 2.48438 19.8917C2.48438 20.0275 2.59845 20.1416 2.73431 20.1416H19.2343C19.3704 20.1416 19.4844 20.0275 19.4844 19.8917C19.4844 19.8215 19.4584 19.7706 19.4304 19.7366C19.4154 19.7256 19.4024 19.7146 19.3874 19.7025C17.5424 18.1326 16.4844 15.8476 16.4844 13.4315V12.3417C16.4844 11.9277 16.8204 11.5917 17.2344 11.5917C17.6484 11.5917 17.9844 11.9277 17.9844 12.3417V13.4315C17.9844 15.3787 18.8254 17.2225 20.2954 18.5046C20.3223 18.5226 20.3483 18.5416 20.3723 18.5627C20.7614 18.8947 20.9844 19.3795 20.9844 19.8917C20.9844 20.8566 20.1995 21.6416 19.2343 21.6416Z" fill="#666666"/>
<path d="M17.9844 10.6415C15.2274 10.6415 12.9844 8.39868 12.9844 5.64166C12.9844 2.88464 15.2274 0.641602 17.9844 0.641602C20.7415 0.641602 22.9843 2.88464 22.9843 5.64166C22.9843 8.39868 20.7415 10.6415 17.9844 10.6415ZM17.9844 2.1416C16.0543 2.1416 14.4844 3.71155 14.4844 5.64166C14.4844 7.57159 16.0543 9.14154 17.9844 9.14154C19.9144 9.14154 21.4843 7.57159 21.4843 5.64166C21.4843 3.71155 19.9144 2.1416 17.9844 2.1416Z" fill="#666666"/>
</g>
<defs>
<clipPath id="clip0_290_3566">
<rect width="24" height="24" fill="white" transform="translate(0 0.641602)"/>
</clipPath>
</defs>
</svg>
