<svg width="32" height="32" viewBox="0 0 32 32" fill="none" xmlns="http://www.w3.org/2000/svg">
<circle cx="16" cy="16" r="16" fill="#1550C0"/>
<g clip-path="url(#clip0_290_4587)">
<path d="M16 26C15.741 26 15.4926 25.8971 15.3095 25.714C15.1263 25.5308 15.0234 25.2824 15.0234 25.0234V6.97656C15.0234 6.71756 15.1263 6.46917 15.3095 6.28603C15.4926 6.10289 15.741 6 16 6C16.259 6 16.5074 6.10289 16.6905 6.28603C16.8737 6.46917 16.9766 6.71756 16.9766 6.97656V25.0234C16.9766 25.2824 16.8737 25.5308 16.6905 25.714C16.5074 25.8971 16.259 26 16 26Z" fill="white"/>
<path d="M25.0234 16.9766H6.97656C6.71756 16.9766 6.46917 16.8737 6.28603 16.6905C6.10289 16.5074 6 16.259 6 16C6 15.741 6.10289 15.4926 6.28603 15.3095C6.46917 15.1263 6.71756 15.0234 6.97656 15.0234H25.0234C25.2824 15.0234 25.5308 15.1263 25.714 15.3095C25.8971 15.4926 26 15.741 26 16C26 16.259 25.8971 16.5074 25.714 16.6905C25.5308 16.8737 25.2824 16.9766 25.0234 16.9766Z" fill="white"/>
</g>
<defs>
<clipPath id="clip0_290_4587">
<rect width="20" height="20" fill="white" transform="translate(6 6)"/>
</clipPath>
</defs>
</svg>
