<svg width="20" height="20" viewBox="0 0 20 20" fill="none" xmlns="http://www.w3.org/2000/svg">
<path d="M17.0925 4.375H14.4088L14.0963 3.4375C13.9456 2.98229 13.6552 2.58621 13.2664 2.30566C12.8775 2.02512 12.4101 1.87441 11.9306 1.875H8.06938C7.59002 1.87464 7.12276 2.02544 6.73407 2.30597C6.34538 2.58649 6.05504 2.98245 5.90437 3.4375L5.59125 4.375H2.9075C2.30235 4.37566 1.72217 4.61635 1.29426 5.04426C0.866351 5.47217 0.625662 6.05235 0.625 6.6575V15.845C0.626323 16.4497 0.867304 17.0293 1.29514 17.4566C1.72298 17.884 2.30278 18.1243 2.9075 18.125H17.095C17.6997 18.1237 18.2793 17.8827 18.7066 17.4549C19.134 17.027 19.3743 16.4472 19.375 15.8425V6.655C19.3737 6.05028 19.1327 5.47074 18.7049 5.04338C18.277 4.61601 17.6972 4.37566 17.0925 4.375ZM18.125 15.8425C18.1247 16.1162 18.0158 16.3787 17.8222 16.5722C17.6287 16.7658 17.3662 16.8747 17.0925 16.875H2.9075C2.63377 16.8747 2.37134 16.7658 2.17778 16.5722C1.98422 16.3787 1.87533 16.1162 1.875 15.8425V6.655C1.87599 6.3817 1.98517 6.11991 2.17866 5.92689C2.37215 5.73387 2.6342 5.62533 2.9075 5.625H6.04187C6.173 5.6249 6.30077 5.58357 6.4071 5.50685C6.51343 5.43012 6.59294 5.3219 6.63437 5.1975L7.09 3.83063C7.15842 3.62503 7.28986 3.44621 7.46566 3.31955C7.64146 3.19289 7.8527 3.12482 8.06938 3.125H11.9306C12.1474 3.12476 12.3587 3.19289 12.5346 3.31968C12.7104 3.44648 12.8418 3.62549 12.91 3.83125L13.3656 5.1975C13.4071 5.3219 13.4866 5.43012 13.5929 5.50685C13.6992 5.58357 13.827 5.6249 13.9581 5.625H17.0925C17.3662 5.62533 17.6287 5.73422 17.8222 5.92778C18.0158 6.12134 18.1247 6.38377 18.125 6.6575V15.8425Z" fill="white"/>
<path d="M10 6.25C9.0729 6.25 8.16662 6.52492 7.39577 7.03999C6.62491 7.55506 6.0241 8.28714 5.66932 9.14367C5.31453 10.0002 5.2217 10.9427 5.40257 11.852C5.58344 12.7613 6.02988 13.5965 6.68544 14.2521C7.341 14.9076 8.17623 15.3541 9.08552 15.5349C9.9948 15.7158 10.9373 15.623 11.7938 15.2682C12.6504 14.9134 13.3824 14.3126 13.8975 13.5417C14.4126 12.7709 14.6875 11.8646 14.6875 10.9375C14.6862 9.6947 14.1919 8.50319 13.3131 7.6244C12.4343 6.74561 11.2428 6.25132 10 6.25ZM10 14.375C9.32013 14.375 8.65552 14.1734 8.09023 13.7957C7.52494 13.418 7.08434 12.8811 6.82417 12.253C6.56399 11.6249 6.49592 10.9337 6.62855 10.2669C6.76119 9.60007 7.08858 8.98756 7.56932 8.50682C8.05007 8.02608 8.66257 7.69869 9.32938 7.56605C9.99619 7.43341 10.6874 7.50149 11.3155 7.76166C11.9436 8.02184 12.4805 8.46243 12.8582 9.02773C13.2359 9.59302 13.4375 10.2576 13.4375 10.9375C13.4365 11.8489 13.074 12.7226 12.4296 13.3671C11.7851 14.0115 10.9114 14.374 10 14.375Z" fill="white"/>
<path d="M16.25 8.125C16.5952 8.125 16.875 7.84518 16.875 7.5C16.875 7.15482 16.5952 6.875 16.25 6.875C15.9048 6.875 15.625 7.15482 15.625 7.5C15.625 7.84518 15.9048 8.125 16.25 8.125Z" fill="white"/>
</svg>
