<svg width="100" height="100" viewBox="0 0 100 100" fill="none" xmlns="http://www.w3.org/2000/svg">
<g opacity="0.5">
<path d="M87.8267 19.3333H73.5133L71.8467 14.3333C71.0434 11.9056 69.4945 9.79312 67.4207 8.29687C65.3469 6.80062 62.8539 5.99685 60.2967 6.00001H39.7033C37.1468 5.99806 34.6547 6.80235 32.5817 8.29848C30.5087 9.79461 28.9602 11.9064 28.1567 14.3333L26.4867 19.3333H12.1733C8.94585 19.3369 5.85156 20.6205 3.56938 22.9027C1.28721 25.1849 0.00352924 28.2792 0 31.5067V80.5067C0.00705537 83.7318 1.29229 86.8227 3.57409 89.102C5.85588 91.3813 8.94815 92.6631 12.1733 92.6667H87.84C91.0652 92.6596 94.156 91.3744 96.4353 89.0926C98.7146 86.8108 99.9965 83.7185 100 80.4933V31.4933C99.9929 28.2682 98.7077 25.1773 96.4259 22.898C94.1441 20.6187 91.0518 19.3369 87.8267 19.3333ZM93.3333 80.4933C93.3316 81.9533 92.7508 83.3529 91.7185 84.3852C90.6862 85.4175 89.2866 85.9982 87.8267 86H12.1733C10.7134 85.9982 9.3138 85.4175 8.28148 84.3852C7.24916 83.3529 6.66843 81.9533 6.66667 80.4933V31.4933C6.67195 30.0357 7.25424 28.6395 8.28618 27.6101C9.31811 26.5807 10.7157 26.0018 12.1733 26H28.89C29.5893 25.9995 30.2707 25.779 30.8379 25.3698C31.405 24.9607 31.829 24.3835 32.05 23.72L34.48 16.43C34.8449 15.3335 35.5459 14.3798 36.4835 13.7043C37.4211 13.0287 38.5477 12.6657 39.7033 12.6667H60.2967C61.4528 12.6654 62.5799 13.0287 63.5177 13.705C64.4555 14.3812 65.1561 15.3359 65.52 16.4333L67.95 23.72C68.171 24.3835 68.595 24.9607 69.1621 25.3698C69.7293 25.779 70.4107 25.9995 71.11 26H87.8267C89.2866 26.0018 90.6862 26.5825 91.7185 27.6148C92.7508 28.6471 93.3316 30.0468 93.3333 31.5067V80.4933Z" fill="#1550C0"/>
<path d="M50 29.3333C45.0555 29.3333 40.222 30.7995 36.1108 33.5465C31.9995 36.2935 28.7952 40.198 26.903 44.7662C25.0108 49.3343 24.5157 54.361 25.4804 59.2105C26.445 64.06 28.826 68.5146 32.3223 72.0109C35.8187 75.5072 40.2732 77.8883 45.1227 78.8529C49.9723 79.8175 54.9989 79.3224 59.5671 77.4302C64.1352 75.5381 68.0397 72.3337 70.7868 68.2225C73.5338 64.1113 75 59.2778 75 54.3333C74.993 47.705 72.3568 41.3503 67.6699 36.6634C62.983 31.9765 56.6283 29.3403 50 29.3333ZM50 72.6666C46.374 72.6666 42.8295 71.5914 39.8146 69.5769C36.7997 67.5624 34.4498 64.6991 33.0622 61.3491C31.6746 57.9991 31.3116 54.3129 32.0189 50.7566C32.7263 47.2003 34.4724 43.9336 37.0364 41.3696C39.6003 38.8057 42.867 37.0596 46.4234 36.3522C49.9797 35.6448 53.6659 36.0079 57.0159 37.3955C60.3659 38.7831 63.2291 41.1329 65.2436 44.1478C67.2581 47.1627 68.3333 50.7073 68.3333 54.3333C68.328 59.1939 66.3948 63.854 62.9578 67.291C59.5208 70.7281 54.8607 72.6613 50 72.6666Z" fill="#1550C0"/>
<path d="M83.3333 39.3334C85.1743 39.3334 86.6667 37.841 86.6667 36.0001C86.6667 34.1591 85.1743 32.6667 83.3333 32.6667C81.4924 32.6667 80 34.1591 80 36.0001C80 37.841 81.4924 39.3334 83.3333 39.3334Z" fill="#1550C0"/>
</g>
</svg>
