<svg width="24" height="24" viewBox="0 0 24 24" fill="none" xmlns="http://www.w3.org/2000/svg">
<g clip-path="url(#clip0_290_4069)">
<path d="M21.18 10.8375L19.8889 10.6226C19.7242 10.5954 19.5676 10.5318 19.4307 10.4363C19.2937 10.3409 19.1798 10.2161 19.0972 10.071L17.3141 6.951C17.0184 6.43482 16.5918 6.00576 16.0774 5.70711C15.5629 5.40846 14.9787 5.25079 14.3839 5.25H8.11613C7.52129 5.25075 6.93717 5.40836 6.4227 5.70695C5.90823 6.00553 5.48161 6.43451 5.18587 6.95062L3.36713 10.1332C3.29148 10.2649 3.1901 10.3799 3.06905 10.4715C2.94799 10.5632 2.80973 10.6295 2.6625 10.6665L1.41975 10.977C1.11033 11.0545 0.825872 11.2098 0.593445 11.4282C0.361018 11.6467 0.188352 11.921 0.091875 12.225C0.08775 12.2347 0.087375 12.2464 0.084 12.2565C0.0297082 12.4313 0.00140568 12.6131 0 12.7961L0 15.375C0.000595447 15.8721 0.198331 16.3487 0.549832 16.7002C0.901334 17.0517 1.3779 17.2494 1.875 17.25H3.25688C3.46897 17.6987 3.80415 18.0779 4.22341 18.3434C4.64266 18.609 5.12872 18.75 5.625 18.75C6.12128 18.75 6.60734 18.609 7.02659 18.3434C7.44585 18.0779 7.78103 17.6987 7.99312 17.25H16.0069C16.219 17.6987 16.5542 18.0779 16.9734 18.3434C17.3927 18.609 17.8787 18.75 18.375 18.75C18.8713 18.75 19.3573 18.609 19.7766 18.3434C20.1958 18.0779 20.531 17.6987 20.7431 17.25H22.125C22.6221 17.2494 23.0987 17.0517 23.4502 16.7002C23.8017 16.3487 23.9994 15.8721 24 15.375V14.1664C24.002 13.367 23.7193 12.593 23.2026 11.983C22.6859 11.373 21.9689 10.9669 21.18 10.8375ZM22.8353 12.75C22.9836 12.9812 23.0946 13.2343 23.1641 13.5H22.875C22.5775 13.4999 22.2921 13.3824 22.0807 13.173C21.962 13.0533 21.8711 12.9089 21.8145 12.75H22.8353ZM0.75375 12.75H1.39463L1.20713 13.5H0.75V12.7961C0.75 12.7804 0.753375 12.7654 0.75375 12.75ZM5.625 18C5.25416 18 4.89165 17.89 4.58331 17.684C4.27496 17.478 4.03464 17.1851 3.89273 16.8425C3.75081 16.4999 3.71368 16.1229 3.78603 15.7592C3.85837 15.3955 4.03695 15.0614 4.29917 14.7992C4.5614 14.537 4.89549 14.3584 5.25921 14.286C5.62292 14.2137 5.99992 14.2508 6.34253 14.3927C6.68514 14.5346 6.97798 14.775 7.18401 15.0833C7.39003 15.3916 7.5 15.7542 7.5 16.125C7.4994 16.6221 7.30167 17.0987 6.95017 17.4502C6.59867 17.8017 6.1221 17.9994 5.625 18ZM18.375 18C18.0042 18 17.6416 17.89 17.3333 17.684C17.025 17.478 16.7846 17.1851 16.6427 16.8425C16.5008 16.4999 16.4637 16.1229 16.536 15.7592C16.6084 15.3955 16.787 15.0614 17.0492 14.7992C17.3114 14.537 17.6455 14.3584 18.0092 14.286C18.3729 14.2137 18.7499 14.2508 19.0925 14.3927C19.4351 14.5346 19.728 14.775 19.934 15.0833C20.14 15.3916 20.25 15.7542 20.25 16.125C20.2494 16.6221 20.0517 17.0987 19.7002 17.4502C19.3487 17.8017 18.8721 17.9994 18.375 18ZM22.125 16.5H20.97C21.027 16.1261 21.0026 15.7444 20.8983 15.3809C20.7941 15.0173 20.6126 14.6806 20.3662 14.3937C20.1197 14.1069 19.8142 13.8767 19.4706 13.7188C19.1269 13.561 18.7532 13.4793 18.375 13.4793C17.9968 13.4793 17.6231 13.561 17.2794 13.7188C16.9358 13.8767 16.6303 14.1069 16.3838 14.3937C16.1374 14.6806 15.9559 15.0173 15.8517 15.3809C15.7474 15.7444 15.723 16.1261 15.78 16.5H8.22C8.27701 16.1261 8.25257 15.7444 8.14835 15.3809C8.04413 15.0173 7.86259 14.6806 7.61616 14.3937C7.36973 14.1069 7.06422 13.8767 6.72055 13.7188C6.37689 13.561 6.00318 13.4793 5.625 13.4793C5.24682 13.4793 4.87311 13.561 4.52945 13.7188C4.18578 13.8767 3.88028 14.1069 3.63384 14.3937C3.38741 14.6806 3.20587 15.0173 3.10165 15.3809C2.99743 15.7444 2.97299 16.1261 3.03 16.5H1.875C1.57663 16.5 1.29048 16.3815 1.0795 16.1705C0.868526 15.9595 0.75 15.6734 0.75 15.375V14.25H1.5C1.5836 14.25 1.6648 14.2221 1.7307 14.1706C1.79661 14.1192 1.84344 14.0472 1.86375 13.9661L2.23875 12.4661C2.2526 12.4108 2.25367 12.3531 2.24186 12.2973C2.23006 12.2416 2.20569 12.1892 2.17063 12.1443C2.13556 12.0994 2.09071 12.063 2.03948 12.038C1.98825 12.013 1.932 12 1.875 12H1.08337C1.22634 11.8565 1.40559 11.7545 1.602 11.7049L2.84512 11.394C3.09026 11.3321 3.32044 11.2215 3.52195 11.0688C3.72347 10.9162 3.89221 10.7245 4.01813 10.5052L5.83687 7.32263C6.06695 6.92123 6.39881 6.5876 6.79897 6.35539C7.19914 6.12317 7.65346 6.00059 8.11613 6H14.3839C14.8465 6.00059 15.3009 6.12317 15.701 6.35539C16.1012 6.5876 16.433 6.92123 16.6631 7.32263L18.4459 10.4426C18.5834 10.6846 18.7732 10.8928 19.0016 11.0519C19.2299 11.2111 19.4909 11.3172 19.7655 11.3625L21.0566 11.5778C21.4342 11.6402 21.7935 11.7843 22.1096 12H21.375C21.2755 12 21.1802 12.0395 21.1098 12.1098C21.0395 12.1802 21 12.2755 21 12.375C20.9998 12.6213 21.0481 12.8652 21.1422 13.0928C21.2364 13.3204 21.3745 13.5272 21.5486 13.7014C21.7228 13.8755 21.9296 14.0136 22.1572 14.1078C22.3848 14.2019 22.6287 14.2502 22.875 14.25H23.25V15.375C23.25 15.6734 23.1315 15.9595 22.9205 16.1705C22.7095 16.3815 22.4234 16.5 22.125 16.5Z" fill="#666666"/>
<path d="M17.0468 8.80688C16.9955 8.72159 16.9125 8.66015 16.816 8.63606C16.7195 8.61197 16.6173 8.62722 16.5321 8.67844C16.4468 8.72966 16.3853 8.81266 16.3612 8.90918C16.3372 9.0057 16.3524 9.10784 16.4036 9.19312L16.9628 10.125H12.375V7.125H14.5256C14.7198 7.12553 14.9106 7.17608 15.0796 7.27178C15.2486 7.36748 15.3901 7.5051 15.4905 7.67138L15.7283 8.06812C15.7795 8.15341 15.8625 8.21485 15.959 8.23894C16.0555 8.26303 16.1577 8.24778 16.2429 8.19656C16.3282 8.14534 16.3897 8.06234 16.4138 7.96582C16.4378 7.8693 16.4226 7.76716 16.3714 7.68188L16.1332 7.28513C15.966 7.00812 15.7303 6.77886 15.4487 6.61945C15.1671 6.46003 14.8492 6.37585 14.5256 6.375H12C11.9005 6.375 11.8052 6.41451 11.7348 6.48483C11.6645 6.55516 11.625 6.65054 11.625 6.75V10.5C11.625 10.5995 11.6645 10.6948 11.7348 10.7652C11.8052 10.8355 11.9005 10.875 12 10.875H17.625C17.6914 10.875 17.7566 10.8574 17.8139 10.8239C17.8712 10.7905 17.9186 10.7424 17.9513 10.6846C17.984 10.6269 18.0008 10.5615 17.9999 10.4951C17.999 10.4287 17.9806 10.3638 17.9464 10.3069L17.0468 8.80688Z" fill="#666666"/>
<path d="M10.5 6.375H7.97436C7.65079 6.37585 7.3329 6.46003 7.05132 6.61945C6.76974 6.77886 6.53397 7.00812 6.36674 7.28513L4.55361 10.3069C4.51943 10.3638 4.50096 10.4287 4.50009 10.4951C4.49922 10.5615 4.51598 10.6269 4.54866 10.6846C4.58134 10.7424 4.62877 10.7905 4.6861 10.8239C4.74343 10.8574 4.80862 10.875 4.87499 10.875H10.5C10.5994 10.875 10.6948 10.8355 10.7652 10.7652C10.8355 10.6948 10.875 10.5995 10.875 10.5V6.75C10.875 6.65054 10.8355 6.55516 10.7652 6.48483C10.6948 6.41451 10.5994 6.375 10.5 6.375ZM10.125 10.125H5.53724L7.00949 7.67138C7.10985 7.5051 7.25135 7.36748 7.42035 7.27178C7.58935 7.17608 7.78015 7.12553 7.97436 7.125H10.125V10.125Z" fill="#666666"/>
<path d="M12.75 11.25H12C11.9005 11.25 11.8052 11.2895 11.7348 11.3598C11.6645 11.4302 11.625 11.5255 11.625 11.625C11.625 11.7245 11.6645 11.8198 11.7348 11.8902C11.8052 11.9605 11.9005 12 12 12H12.75C12.8495 12 12.9448 11.9605 13.0152 11.8902C13.0855 11.8198 13.125 11.7245 13.125 11.625C13.125 11.5255 13.0855 11.4302 13.0152 11.3598C12.9448 11.2895 12.8495 11.25 12.75 11.25Z" fill="#666666"/>
<path d="M5.625 11.25H4.875C4.77554 11.25 4.68016 11.2895 4.60984 11.3598C4.53951 11.4302 4.5 11.5255 4.5 11.625C4.5 11.7245 4.53951 11.8198 4.60984 11.8902C4.68016 11.9605 4.77554 12 4.875 12H5.625C5.72446 12 5.81984 11.9605 5.89016 11.8902C5.96049 11.8198 6 11.7245 6 11.625C6 11.5255 5.96049 11.4302 5.89016 11.3598C5.81984 11.2895 5.72446 11.25 5.625 11.25Z" fill="#666666"/>
<path d="M18.375 15C18.1525 15 17.935 15.066 17.75 15.1896C17.565 15.3132 17.4208 15.4889 17.3356 15.6945C17.2505 15.9 17.2282 16.1262 17.2716 16.3445C17.315 16.5627 17.4222 16.7632 17.5795 16.9205C17.7368 17.0778 17.9373 17.185 18.1555 17.2284C18.3738 17.2718 18.6 17.2495 18.8055 17.1644C19.0111 17.0792 19.1868 16.935 19.3104 16.75C19.434 16.565 19.5 16.3475 19.5 16.125C19.5 15.8266 19.3815 15.5405 19.1705 15.3295C18.9595 15.1185 18.6734 15 18.375 15ZM18.375 16.5C18.3008 16.5 18.2283 16.478 18.1667 16.4368C18.105 16.3956 18.0569 16.337 18.0285 16.2685C18.0002 16.2 17.9927 16.1246 18.0072 16.0518C18.0217 15.9791 18.0574 15.9123 18.1098 15.8598C18.1623 15.8074 18.2291 15.7717 18.3018 15.7572C18.3746 15.7427 18.45 15.7502 18.5185 15.7785C18.587 15.8069 18.6456 15.855 18.6868 15.9167C18.728 15.9783 18.75 16.0508 18.75 16.125C18.75 16.2245 18.7105 16.3198 18.6402 16.3902C18.5698 16.4605 18.4745 16.5 18.375 16.5Z" fill="#666666"/>
<path d="M5.625 15C5.4025 15 5.18499 15.066 4.99998 15.1896C4.81498 15.3132 4.67078 15.4889 4.58564 15.6945C4.50049 15.9 4.47821 16.1262 4.52162 16.3445C4.56503 16.5627 4.67217 16.7632 4.82951 16.9205C4.98684 17.0778 5.1873 17.185 5.40552 17.2284C5.62375 17.2718 5.84995 17.2495 6.05552 17.1644C6.26109 17.0792 6.43679 16.935 6.5604 16.75C6.68402 16.565 6.75 16.3475 6.75 16.125C6.75 15.8266 6.63147 15.5405 6.4205 15.3295C6.20952 15.1185 5.92337 15 5.625 15ZM5.625 16.5C5.55083 16.5 5.47833 16.478 5.41666 16.4368C5.35499 16.3956 5.30693 16.337 5.27855 16.2685C5.25016 16.2 5.24274 16.1246 5.25721 16.0518C5.27168 15.9791 5.30739 15.9123 5.35984 15.8598C5.41228 15.8074 5.4791 15.7717 5.55184 15.7572C5.62458 15.7427 5.69998 15.7502 5.76851 15.7785C5.83703 15.8069 5.8956 15.855 5.9368 15.9167C5.97801 15.9783 6 16.0508 6 16.125C6 16.2245 5.96049 16.3198 5.89017 16.3902C5.81984 16.4605 5.72446 16.5 5.625 16.5Z" fill="#666666"/>
</g>
<defs>
<clipPath id="clip0_290_4069">
<rect width="24" height="24" fill="white"/>
</clipPath>
</defs>
</svg>
