<svg width="120" height="120" viewBox="0 0 120 120" fill="none" xmlns="http://www.w3.org/2000/svg">
<g clip-path="url(#clip0_290_1967)">
<path d="M29.2969 105.703C20.5078 105.703 13.3594 98.5547 13.3594 89.7656C13.3594 80.9766 20.5078 73.8281 29.2969 73.8281C38.0859 73.8281 45.2344 80.9766 45.2344 89.7656C45.2344 98.5547 38.0859 105.703 29.2969 105.703ZM29.2969 76.1719C21.7969 76.1719 15.7031 82.2656 15.7031 89.7656C15.7031 97.2656 21.7969 103.359 29.2969 103.359C36.7969 103.359 42.8906 97.2656 42.8906 89.7656C42.8906 82.2656 36.7969 76.1719 29.2969 76.1719Z" fill="#1550C0"/>
<path d="M29.2969 98.4375C24.5156 98.4375 20.625 94.5469 20.625 89.7656C20.625 84.9844 24.5156 81.0938 29.2969 81.0938C34.0781 81.0938 37.9688 84.9844 37.9688 89.7656C37.9688 94.5469 34.0781 98.4375 29.2969 98.4375ZM29.2969 83.4375C25.8047 83.4375 22.9688 86.2734 22.9688 89.7656C22.9688 93.2578 25.8047 96.0938 29.2969 96.0938C32.7891 96.0938 35.625 93.2578 35.625 89.7656C35.625 86.2734 32.7891 83.4375 29.2969 83.4375Z" fill="#1550C0"/>
<path d="M14.5312 97.0312H1.17188C0.515625 97.0312 0 96.5156 0 95.8594V83.6719C0 83.0156 0.515625 82.5 1.17188 82.5H14.5312C15.1875 82.5 15.7031 83.0156 15.7031 83.6719V95.8594C15.7031 96.5156 15.1875 97.0312 14.5312 97.0312ZM2.34375 94.6875H13.3594V84.8438H2.34375V94.6875Z" fill="#1550C0"/>
<path d="M6.5625 83.6719H4.21875V72.1875C4.21875 71.9062 4.3125 71.6484 4.5 71.4375C11.5781 62.9766 21.9375 58.125 32.9766 58.125H44.6719L50.8594 50.4375C55.6172 44.5313 61.7578 39.6797 68.625 36.3984C75.4688 33.1172 83.1094 31.3828 90.7031 31.3828V33.7266C75.8672 33.7266 62.0156 40.3594 52.6875 51.8906L46.1484 60C45.9375 60.2813 45.5859 60.4453 45.2344 60.4453H32.9766C22.7812 60.4453 13.1719 64.875 6.5625 72.5859V83.6719Z" fill="#1550C0"/>
<path d="M63.9844 60.4688H52.9688C52.3125 60.4688 51.7969 59.9531 51.7969 59.2969V56.25C51.7969 53.9297 53.6953 52.0312 56.0156 52.0312H63.9844C66.3047 52.0312 68.2031 53.9297 68.2031 56.25C68.2031 58.5703 66.3047 60.4688 63.9844 60.4688ZM54.1406 58.125H63.9844C65.0156 58.125 65.8594 57.2812 65.8594 56.25C65.8594 55.2188 65.0156 54.375 63.9844 54.375H56.0156C54.9844 54.375 54.1406 55.2188 54.1406 56.25V58.125Z" fill="#1550C0"/>
<path d="M13.8283 73.3594H5.39083C4.94552 73.3594 4.52364 73.1016 4.33614 72.6797C4.14864 72.2578 4.19552 71.7891 4.5002 71.4375C7.71114 67.5937 12.4221 65.3906 17.4377 65.3906H19.4533C20.1096 65.3906 20.6252 65.9062 20.6252 66.5625C20.6252 70.3125 17.5783 73.3594 13.8283 73.3594ZM8.22677 71.0156H13.8283C15.8674 71.0156 17.6018 69.6328 18.1174 67.7344H17.4143C14.0393 67.7344 10.8049 68.9062 8.22677 71.0156Z" fill="#1550C0"/>
<path d="M110.625 105.703C110.414 105.703 110.203 105.656 110.016 105.539C109.664 105.328 109.453 104.953 109.453 104.531V95.0859L104.766 92.6952L100.078 95.0859V104.531C100.078 104.93 99.8672 105.328 99.5156 105.539C99.1641 105.75 98.7422 105.773 98.3672 105.586L92.2031 102.422L93.2812 100.336L97.7578 102.633V94.3828C97.7578 93.9374 98.0156 93.539 98.3906 93.3281L104.25 90.3281C104.578 90.164 104.977 90.164 105.328 90.3281L111.187 93.3281C111.586 93.539 111.82 93.9374 111.82 94.3828V102.633L117.68 99.6328V86.6718L110.109 82.8046C109.711 82.5937 109.477 82.1952 109.477 81.7499V38.2499C109.477 37.8046 109.734 37.4062 110.109 37.1953L117.68 33.3281V20.3906L111.82 17.3906V25.6406C111.82 26.0859 111.562 26.4843 111.187 26.6953L105.328 29.6953C105 29.8593 104.602 29.8593 104.25 29.6953L98.3906 26.6953C97.9922 26.4843 97.7578 26.0859 97.7578 25.6406V17.3906L91.875 20.3906V33.3515L99.4453 37.2187C99.8437 37.4296 100.078 37.8281 100.078 38.2734V81.7734C100.078 82.2187 99.8203 82.6171 99.4453 82.8281L91.875 86.6718V89.5312C91.875 90.1874 91.3594 90.7031 90.7031 90.7031H90.4687C90.1641 91.7343 89.7422 92.7187 89.25 93.6562L91.4062 95.8124C91.6172 96.0234 91.7578 96.3281 91.7578 96.6327C91.7578 96.9374 91.6406 97.2421 91.4062 97.4531L86.4375 102.422C85.9687 102.891 85.2422 102.891 84.7734 102.422L82.6172 100.266C81.6797 100.758 80.6953 101.18 79.6641 101.484V104.531C79.6641 105.187 79.1484 105.703 78.4922 105.703H71.4609C70.8047 105.703 70.2891 105.187 70.2891 104.531V101.484C69.2578 101.18 68.2734 100.758 67.3359 100.266L65.1797 102.422C64.7109 102.891 63.9844 102.891 63.5156 102.422L58.5937 97.4531C58.125 96.9843 58.125 96.2578 58.5937 95.789L60.75 93.6327C60.2578 92.6952 59.8359 91.7109 59.5312 90.6796H56.4844C55.8281 90.6796 55.3125 90.164 55.3125 89.5077V82.4765C55.3125 81.8202 55.8281 81.3046 56.4844 81.3046H59.5312C59.8359 80.2734 60.2578 79.289 60.75 78.3515L58.5937 76.1952C58.125 75.7265 58.125 74.9999 58.5937 74.5312L63.5625 69.5624C64.0313 69.0937 64.7578 69.0937 65.2266 69.5624L67.3828 71.7187C68.3203 71.2265 69.3047 70.8046 70.3359 70.4999V67.4531C70.3359 66.7968 70.8516 66.2812 71.5078 66.2812H78.5391C79.1953 66.2812 79.7109 66.7968 79.7109 67.4531V70.4999C80.7422 70.8046 81.7266 71.2265 82.6641 71.7187L84.8203 69.5624C85.2891 69.0937 86.0156 69.0937 86.4844 69.5624L91.4531 74.5312C91.6641 74.7421 91.8047 75.0468 91.8047 75.3515C91.8047 75.6562 91.6875 75.9609 91.4531 76.1718L89.2969 78.3281C89.7891 79.2656 90.2109 80.2499 90.5156 81.2812H93.5625C94.2188 81.2812 94.7344 81.7968 94.7344 82.4531V82.5468L97.7812 80.9765V38.9765L90.2109 35.1093C89.8125 34.8984 89.5781 34.4999 89.5781 34.0546V19.664C89.5781 19.2187 89.8359 18.8203 90.2109 18.6093L98.4141 14.414C98.7656 14.2265 99.2109 14.2499 99.5625 14.4609C99.9141 14.6718 100.125 15.0468 100.125 15.4687V24.914L104.812 27.3046L109.5 24.914V15.4687C109.5 15.0703 109.711 14.6718 110.062 14.4609C110.414 14.2499 110.836 14.2265 111.211 14.414L119.414 18.6093C119.812 18.8203 120.047 19.2187 120.047 19.664V34.0546C120.047 34.4999 119.789 34.8984 119.414 35.1093L111.797 38.9765V81.0468L119.367 84.914C119.766 85.1249 120 85.5234 120 85.9687V100.359C120 100.805 119.742 101.203 119.367 101.414L111.164 105.609C111 105.656 110.812 105.703 110.625 105.703ZM72.6562 103.359H77.3437V100.594C77.3437 100.055 77.7187 99.5859 78.2344 99.4452C79.6406 99.1171 80.9766 98.5546 82.1953 97.8046C82.6641 97.5234 83.25 97.5937 83.625 97.9687L85.5703 99.914L88.875 96.6093L86.9297 94.664C86.5547 94.289 86.4844 93.6796 86.7656 93.2343C87.5156 92.0156 88.0781 90.6796 88.4062 89.2734C88.5234 88.7577 88.9687 88.4062 89.4844 88.3828V85.9687C89.4844 85.5234 89.7422 85.1249 90.1172 84.914L92.2969 83.8124V83.6718H89.5312C88.9922 83.6718 88.5234 83.2968 88.3828 82.7812C88.0547 81.3749 87.4922 80.039 86.7422 78.8202C86.4609 78.3515 86.5312 77.7656 86.9062 77.3906L88.8516 75.4452L85.5469 72.1406L83.6016 74.0859C83.2266 74.4609 82.6172 74.5312 82.1719 74.2499C80.9531 73.4999 79.6172 72.9374 78.2109 72.6093C77.6953 72.4921 77.3203 72.0234 77.3203 71.4609V68.6718H72.6328V71.4374C72.6328 71.9765 72.2578 72.4453 71.7422 72.5859C70.3359 72.914 69 73.4765 67.7813 74.2265C67.3125 74.5078 66.7266 74.4374 66.3516 74.0624L64.4062 72.1171L61.1016 75.4218L63.0469 77.3671C63.4219 77.7421 63.4922 78.3515 63.2109 78.7968C62.4609 80.0156 61.8984 81.3515 61.5703 82.7578C61.4531 83.2734 60.9609 83.6484 60.4219 83.6484H57.6562V88.3359H60.4219C60.9609 88.3359 61.4297 88.7109 61.5703 89.2265C61.8984 90.6328 62.4609 91.9687 63.2109 93.1874C63.4922 93.6562 63.4219 94.2421 63.0469 94.6171L61.1016 96.5624L64.4062 99.8671L66.3516 97.9218C66.7266 97.5468 67.3359 97.4765 67.7813 97.7578C69 98.5078 70.3359 99.0703 71.7422 99.3984C72.2578 99.5156 72.6328 99.9843 72.6328 100.547V103.359H72.6562ZM75 95.3906C69.8203 95.3906 65.625 91.1952 65.625 86.0156C65.625 80.8359 69.8203 76.6406 75 76.6406C80.1797 76.6406 84.375 80.8359 84.375 86.0156C84.375 91.1952 80.1797 95.3906 75 95.3906ZM75 78.9843C71.1328 78.9843 67.9687 82.1484 67.9687 86.0156C67.9687 89.8827 71.1328 93.0468 75 93.0468C78.8672 93.0468 82.0312 89.8827 82.0312 86.0156C82.0312 82.1484 78.8672 78.9843 75 78.9843Z" fill="#1550C0"/>
<path d="M58.8984 53.9531L57.0938 52.4531L58.5 50.7656C65.5781 42.1875 76.0078 37.2656 87.1406 37.2656H98.9062V39.6094H87.1406C76.7109 39.6094 66.9375 44.2266 60.3047 52.2656L58.8984 53.9531Z" fill="#1550C0"/>
<path d="M52.9688 58.125H94.2188V60.4688H52.9688V58.125Z" fill="#1550C0"/>
<path d="M60.1875 97.0312H44.0625C43.4063 97.0312 42.8906 96.5156 42.8906 95.8594V83.6719C42.8906 83.0156 43.4063 82.5 44.0625 82.5H56.4844V84.8438H45.2344V94.6875H60.1875V97.0312Z" fill="#1550C0"/>
<path d="M67.1484 82.5H82.875V84.8438H67.1484V82.5Z" fill="#1550C0"/>
</g>
<defs>
<clipPath id="clip0_290_1967">
<rect width="120" height="120" fill="white"/>
</clipPath>
</defs>
</svg>
