<svg width="28" height="28" viewBox="0 0 28 28" fill="none" xmlns="http://www.w3.org/2000/svg">
<path d="M17.2727 19.6525C17.268 19.6525 17.2632 19.6525 17.2584 19.6524C15.5073 19.6364 13.7169 19.6384 11.9855 19.6403C11.3956 19.641 10.8038 19.6416 10.2094 19.6416C10.0102 19.6416 9.83649 19.5061 9.78805 19.3128C9.34217 17.5332 8.47837 16.7253 7.14827 16.843C5.90636 16.9529 5.35003 18.4241 5.1289 19.2912C5.07987 19.4837 4.90653 19.6183 4.70795 19.6183H0.635653C0.410404 19.6183 0.222516 19.4461 0.202858 19.2217C0.192975 19.1086 0.179508 18.9882 0.165281 18.8608C0.126182 18.5109 0.0857266 18.1491 0.103592 17.818C0.12754 17.3742 0.243586 16.7765 0.660524 16.4498C0.827832 16.3187 1.11423 16.1789 1.5284 16.2575C1.69614 16.2892 1.76657 16.2643 1.77504 16.2565C1.77575 16.2558 1.84449 16.1756 1.8061 15.8567C1.79633 15.7758 1.79872 15.7028 1.80062 15.6441C1.80121 15.6261 1.80187 15.6081 1.80187 15.5901C1.80214 15.1114 1.80246 14.6587 1.75256 14.54C1.68158 14.507 1.45742 14.4762 1.2584 14.449C1.12726 14.431 0.978631 14.4106 0.806871 14.383C0.599976 14.3499 0.446299 14.1737 0.441466 13.9643C0.428162 13.3912 0.457214 13.0495 0.653085 12.7721C0.887348 12.4403 1.27496 12.3501 1.68511 12.2801L1.87251 12.2477C2.22543 12.1865 2.59035 12.1232 2.96075 12.0917C3.53402 12.0431 4.04393 11.7864 4.72076 11.206C8.69265 7.80006 13.1155 7.43346 17.8666 10.1164C18.6303 10.5476 19.3142 11.1412 19.9757 11.7153C20.3083 12.004 20.6523 12.3026 20.9962 12.5706C21.2745 12.7875 21.4564 12.8515 21.5599 12.867C21.8011 12.903 22.0861 12.9376 22.3877 12.9743C23.5908 13.1203 25.0881 13.3022 26.0257 13.8165C26.1278 13.8724 26.2032 13.9671 26.2349 14.0791C26.2665 14.1912 26.2519 14.3113 26.1942 14.4125C25.9872 14.7757 26.0846 15.2527 26.2028 15.589C26.4676 16.3422 26.9959 16.901 27.1535 16.9634C27.7294 17.1392 27.9749 17.563 27.8792 18.2217C27.8736 18.2601 27.8684 18.3 27.863 18.3409C27.8087 18.7521 27.6959 19.6078 26.868 19.6271C25.9877 19.6475 25.0945 19.6435 24.2305 19.6396C23.8777 19.6381 23.5246 19.6364 23.1711 19.6364C22.9667 19.6364 22.7899 19.4939 22.7466 19.2941C22.4128 17.7547 21.7134 16.9501 20.6086 16.8341C19.5561 16.7243 18.5908 17.527 18.2602 18.7875C18.1807 19.0904 18.0333 19.6524 17.2727 19.6525ZM13.7212 18.7702C14.9004 18.7702 16.0916 18.7729 17.2663 18.7835C17.3074 18.7844 17.3343 18.781 17.3486 18.7785C17.3611 18.7553 17.3851 18.6991 17.4197 18.5672C17.8618 16.8819 19.2097 15.8141 20.6993 15.9701C21.6825 16.0732 22.944 16.6502 23.5129 18.768C23.7535 18.7686 23.994 18.7697 24.2344 18.7708C25.0924 18.7745 25.9795 18.7786 26.8478 18.7584C26.866 18.758 26.8731 18.7554 26.8732 18.7554C26.9393 18.6992 26.9829 18.3685 27.0016 18.2272C27.0074 18.1825 27.0132 18.1388 27.0193 18.0968C27.0564 17.842 27.0349 17.8355 26.8958 17.793C26.3581 17.6288 25.732 16.7635 25.4373 16.0218C25.203 15.4319 25.1452 14.8869 25.2638 14.4193C24.4501 14.0999 23.2626 13.9557 22.283 13.8367C21.9752 13.7993 21.6845 13.764 21.4315 13.7262C21.127 13.6807 20.8099 13.5269 20.4621 13.2559C20.1001 12.9737 19.7473 12.6676 19.4061 12.3714C18.7482 11.8003 18.1268 11.261 17.4393 10.8728C13.0401 8.38865 8.95124 8.72266 5.28627 11.8655C4.70985 12.3598 3.99153 12.876 3.03422 12.9573C2.70156 12.9856 2.37096 13.043 2.02098 13.1037L1.83113 13.1364C1.46329 13.1991 1.37977 13.249 1.36277 13.2731C1.33057 13.3187 1.31645 13.445 1.3108 13.579C1.33312 13.5821 1.35495 13.5851 1.37629 13.5881C1.89836 13.6596 2.27555 13.7113 2.49711 14.09C2.67147 14.3882 2.67126 14.7648 2.67071 15.59C2.67071 15.6177 2.6699 15.6451 2.66898 15.6723C2.66794 15.7029 2.66686 15.7375 2.66865 15.7526C2.73028 16.2643 2.62923 16.6473 2.36825 16.8912C2.20192 17.0466 1.8932 17.211 1.36635 17.111C1.25275 17.0894 1.21469 17.1192 1.19639 17.1336C1.10689 17.2037 0.994162 17.4373 0.971083 17.8647C0.957344 18.1199 0.99237 18.4392 1.02702 18.7494H4.37778C4.88546 17.0671 5.83386 16.0871 7.07159 15.9775C8.25963 15.8719 9.80217 16.285 10.541 18.7727C11.0236 18.7725 11.5047 18.7719 11.9845 18.7714C12.5581 18.7708 13.1382 18.7702 13.7212 18.7702Z" fill="#666666"/>
<path d="M13.0305 13.853C12.8113 13.853 12.6349 13.7877 12.5059 13.6587C12.2941 13.447 12.3005 13.1453 12.3027 13.0462C12.3148 12.4797 12.3147 11.9675 12.3022 11.4804C12.2974 11.2963 12.3151 11.0296 12.5218 10.8397C12.6681 10.7053 12.8676 10.6509 13.1149 10.6783C14.2618 10.8051 15.3542 11.2797 16.5528 12.1719C16.8083 12.362 16.9999 12.5173 17.1741 12.6753C17.2895 12.78 17.3433 12.9073 17.3827 13.0003C17.392 13.0224 17.4017 13.0452 17.4083 13.058C17.5124 13.2592 17.4443 13.5067 17.2519 13.6264C17.245 13.6309 17.2259 13.6459 17.2121 13.6568C17.1266 13.7243 16.9834 13.8371 16.78 13.8412C16.2947 13.851 15.8034 13.8499 15.3284 13.8489C15.1734 13.8485 15.0163 13.848 14.8638 13.8482C14.6924 13.8482 14.5209 13.8475 14.3494 13.8469C13.9242 13.8452 13.4847 13.8434 13.0553 13.8528C13.0469 13.8529 13.0386 13.853 13.0305 13.853ZM13.1731 11.5614C13.183 12.007 13.1829 12.4735 13.173 12.9815C13.5687 12.9747 13.9666 12.9764 14.3528 12.9779C14.5277 12.9787 14.7046 12.9794 14.8773 12.9793H14.8774C15.0283 12.9793 15.1792 12.9796 15.3302 12.98C15.6097 12.9806 15.8951 12.9812 16.1805 12.9796C16.1343 12.9441 16.0857 12.9072 16.0339 12.8687C15.02 12.114 14.1064 11.6959 13.1731 11.5614Z" fill="#666666"/>
<path d="M10.4078 13.8545C10.3878 13.8545 10.3676 13.854 10.347 13.8528C10.0849 13.8385 9.82253 13.8417 9.54477 13.845C9.42503 13.8464 9.30529 13.8478 9.18561 13.8478C9.18528 13.8478 9.1849 13.8478 9.18452 13.8478C9.07097 13.8478 8.95737 13.8465 8.84382 13.8452C8.58138 13.8421 8.33348 13.8392 8.08592 13.8523C7.7387 13.8706 7.31253 13.7452 7.25242 13.0419C7.19497 12.3688 7.4383 11.885 7.99643 11.5628C8.81494 11.0902 9.53315 10.8111 10.2567 10.6844C10.5231 10.6377 10.7406 10.6852 10.9028 10.8257C11.1344 11.0263 11.1528 11.3305 11.1464 11.5419C11.1335 11.9728 11.1332 12.4351 11.1456 12.997C11.1498 13.1876 11.1316 13.4641 10.9254 13.6635C10.7943 13.7904 10.6203 13.8545 10.4078 13.8545ZM10.2766 11.5649C9.69817 11.6841 9.10774 11.9245 8.43085 12.3152C8.19794 12.4497 8.0857 12.5876 8.11817 12.9679C8.11855 12.9724 8.11893 12.9768 8.11931 12.9809C8.36808 12.9706 8.61472 12.9736 8.85409 12.9764C8.96459 12.9777 9.0738 12.9793 9.18555 12.979C9.30176 12.979 9.41803 12.9776 9.53423 12.9762C9.7761 12.9732 10.0251 12.9703 10.2761 12.9798C10.2647 12.4398 10.2648 11.9877 10.2766 11.5649Z" fill="#666666"/>
<path d="M13.747 16.7536C13.5293 16.7536 13.3414 16.5903 13.3159 16.3688C13.2885 16.1304 13.4595 15.915 13.6979 15.8876C14.0898 15.8425 14.4399 15.8403 14.7681 15.8809C15.0062 15.9104 15.1754 16.1273 15.1459 16.3654C15.1165 16.6035 14.8994 16.7723 14.6615 16.7432C14.4023 16.7112 14.1196 16.7136 13.7971 16.7508C13.7803 16.7527 13.7636 16.7536 13.747 16.7536Z" fill="#666666"/>
</svg>
