<svg width="24" height="24" viewBox="0 0 24 24" fill="none" xmlns="http://www.w3.org/2000/svg">
<g clip-path="url(#clip0_290_2269)">
<path d="M22.6879 10.02L21.2809 8.89425C21.2752 8.88975 21.2696 8.88413 21.264 8.87963L22.5739 8.6175C22.749 8.58262 22.875 8.42887 22.875 8.25V7.125C22.875 6.918 22.707 6.75 22.5 6.75H20.625C20.418 6.75 20.25 6.918 20.25 7.125V7.782C20.2414 7.77038 20.2327 7.75875 20.2241 7.74713C20.2005 7.68188 20.1585 7.62862 20.1052 7.58625C19.8941 7.28737 19.7134 6.98812 19.5956 6.72937L18.9619 5.3355C18.558 4.44637 17.4765 3.75 16.5 3.75H7.5C6.5235 3.75 5.442 4.44637 5.03813 5.3355L4.40475 6.729C4.287 6.98775 4.10625 7.28737 3.89512 7.58625C3.84188 7.62862 3.80025 7.68188 3.77625 7.74713C3.76762 7.75875 3.75938 7.77 3.75038 7.782V7.125C3.75038 6.918 3.58238 6.75 3.37538 6.75H1.5C1.293 6.75 1.125 6.918 1.125 7.125V8.25C1.125 8.42887 1.251 8.58262 1.4265 8.6175L2.73637 8.87963C2.73075 8.88413 2.72512 8.88975 2.7195 8.89425L1.31212 10.02C0.576375 10.6087 0 11.808 0 12.75V19.125C0 19.7452 0.50475 20.25 1.125 20.25H4.125C4.74525 20.25 5.25 19.7452 5.25 19.125V18.375H18.75V19.125C18.75 19.7452 19.2547 20.25 19.875 20.25H22.875C23.4953 20.25 24 19.7452 24 19.125V12.75C24 11.808 23.4236 10.6087 22.6879 10.02ZM19.2803 17.625L18.4204 16.7651C18.0555 16.4003 17.391 16.125 16.875 16.125H6.9375C6.4215 16.125 5.757 16.4003 5.39213 16.7651L4.53225 17.625H1.875C1.25475 17.625 0.75 17.1202 0.75 16.5V14.625H1.125V15C1.125 15.8273 1.79775 16.5 2.625 16.5H3.75C3.957 16.5 4.125 16.332 4.125 16.125C4.125 15.918 3.957 15.75 3.75 15.75H2.625C2.21137 15.75 1.875 15.4136 1.875 15V14.625H2.625C2.93625 14.625 3.42 14.8252 3.64012 15.0454C3.71325 15.1185 3.80925 15.1553 3.90525 15.1553C4.00125 15.1553 4.09725 15.1185 4.17037 15.0454C4.317 14.8987 4.317 14.6617 4.17037 14.5151C3.8055 14.1503 3.14138 13.875 2.625 13.875H0.75V12.75C0.75 12.6176 0.771 12.4747 0.800625 12.3289C1.04062 12.5794 1.38975 12.75 1.875 12.75H4.875C4.97437 12.75 5.06962 12.7106 5.14012 12.6401L5.625 12.1553L6.10987 12.6401C6.18 12.7106 6.27563 12.75 6.375 12.75H10.7198L11.7349 13.7651C11.808 13.8383 11.904 13.875 12 13.875C12.096 13.875 12.192 13.8383 12.2651 13.7651L13.2803 12.75H17.625C17.7244 12.75 17.82 12.7106 17.8901 12.6401L18.375 12.1553L18.8599 12.6401C18.93 12.7106 19.0256 12.75 19.125 12.75H22.125C22.6103 12.75 22.9594 12.5794 23.1994 12.3289C23.229 12.4747 23.25 12.6176 23.25 12.75V13.875H21.375C20.859 13.875 20.1945 14.1503 19.8296 14.5151C19.683 14.6617 19.683 14.8987 19.8296 15.0454C19.9028 15.1185 19.9987 15.1553 20.0947 15.1553C20.1908 15.1553 20.2867 15.1185 20.3599 15.0454C20.58 14.8252 21.0637 14.625 21.375 14.625H22.125V15C22.125 15.4136 21.7886 15.75 21.375 15.75H20.25C20.043 15.75 19.875 15.918 19.875 16.125C19.875 16.332 20.043 16.5 20.25 16.5H21.375C22.2022 16.5 22.875 15.8273 22.875 15V14.625H23.25V16.5C23.25 17.1202 22.7453 17.625 22.125 17.625H19.2803ZM18.2197 17.625H5.59275L5.92238 17.2954C6.1425 17.0752 6.62625 16.875 6.9375 16.875H16.875C17.1863 16.875 17.67 17.0752 17.8901 17.2954L18.2197 17.625ZM4.335 8.25H19.665C20.0284 8.73037 20.4435 9.18488 20.8121 9.48L21.2633 9.84075L18.6109 10.9016C18.6105 10.9016 18.6105 10.902 18.6101 10.902C18.5647 10.9204 18.522 10.9478 18.4852 10.9845L18.1102 11.3595L17.4697 12H13.125C13.0256 12 12.93 12.0394 12.8599 12.1099L12 12.9697L11.1401 12.1099C11.07 12.0394 10.9744 12 10.875 12H6.53025L5.89012 11.3599L5.51512 10.9849C5.47837 10.9481 5.43563 10.9208 5.39025 10.9024C5.38987 10.9024 5.38987 10.902 5.3895 10.902L2.73712 9.84113L3.18825 9.48038C3.5565 9.18488 3.97163 8.73037 4.335 8.25ZM22.8529 11.4071C22.7775 11.799 22.5345 12 22.125 12H19.2803L18.9053 11.625L18.9608 11.5695L21.9364 10.3792L22.2191 10.6058C22.4569 10.7959 22.6763 11.085 22.8529 11.4071ZM21 7.5H22.125V7.9425L21 8.1675V7.5ZM5.08687 7.0395L5.72025 5.646C6.003 5.02462 6.81787 4.5 7.5 4.5H16.5C17.1821 4.5 17.997 5.02463 18.2794 5.64563L18.9131 7.0395C18.9791 7.18425 19.065 7.34063 19.1591 7.5H4.84088C4.935 7.34063 5.02125 7.18425 5.08687 7.0395ZM1.875 7.5H3V8.1675L1.875 7.9425V7.5ZM1.7805 10.6058L2.06325 10.3792L5.03925 11.5695L5.09475 11.625L4.71975 12H1.875C1.4655 12 1.2225 11.799 1.14713 11.4071C1.32375 11.085 1.54275 10.7959 1.7805 10.6058ZM4.125 19.5H1.125C0.918375 19.5 0.75 19.3316 0.75 19.125V17.9906C1.06425 18.2284 1.45125 18.375 1.875 18.375H4.5V19.125C4.5 19.3316 4.33162 19.5 4.125 19.5ZM22.875 19.5H19.875C19.6684 19.5 19.5 19.3316 19.5 19.125V18.375H22.125C22.5487 18.375 22.9357 18.2284 23.25 17.9906V19.125C23.25 19.3316 23.0816 19.5 22.875 19.5Z" fill="#666666"/>
</g>
<defs>
<clipPath id="clip0_290_2269">
<rect width="24" height="24" fill="white"/>
</clipPath>
</defs>
</svg>
