<svg width="20" height="20" viewBox="0 0 20 20" fill="none" xmlns="http://www.w3.org/2000/svg">
<path d="M4.16667 17.5C3.70833 17.5 3.31583 17.3369 2.98917 17.0108C2.66306 16.6842 2.5 16.2917 2.5 15.8333V4.16667C2.5 3.70833 2.66306 3.31583 2.98917 2.98917C3.31583 2.66306 3.70833 2.5 4.16667 2.5H15.8333C16.2917 2.5 16.6842 2.66306 17.0108 2.98917C17.3369 3.31583 17.5 3.70833 17.5 4.16667V15.8333C17.5 16.2917 17.3369 16.6842 17.0108 17.0108C16.6842 17.3369 16.2917 17.5 15.8333 17.5H4.16667ZM4.16667 15.8333H15.8333V4.16667H4.16667V15.8333ZM8.83333 13.1458C8.94444 13.1458 9.04861 13.1286 9.14583 13.0942C9.24306 13.0592 9.33333 13 9.41667 12.9167L14.1458 8.1875C14.2986 8.03472 14.375 7.84722 14.375 7.625C14.375 7.40278 14.2917 7.20833 14.125 7.04167C13.9722 6.88889 13.7778 6.8125 13.5417 6.8125C13.3056 6.8125 13.1111 6.88889 12.9583 7.04167L8.83333 11.1667L7.02083 9.35417C6.86806 9.20139 6.68056 9.125 6.45833 9.125C6.23611 9.125 6.04167 9.20833 5.875 9.375C5.72222 9.52778 5.64583 9.72222 5.64583 9.95833C5.64583 10.1944 5.72222 10.3889 5.875 10.5417L8.25 12.9167C8.33333 13 8.42361 13.0592 8.52083 13.0942C8.61806 13.1286 8.72222 13.1458 8.83333 13.1458ZM4.16667 15.8333V4.16667V15.8333Z" fill="#004066"/>
</svg>
