<svg width="24" height="24" viewBox="0 0 24 24" fill="none" xmlns="http://www.w3.org/2000/svg">
<path fill-rule="evenodd" clip-rule="evenodd" d="M12.0028 4.00049C16.1388 4.00349 19.8527 6.90249 21.9387 11.7565C22.0208 11.9455 22.0208 12.1595 21.9387 12.3485C19.8537 17.2035 16.1388 20.1025 12.0028 20.1055H11.9967C7.86075 20.1025 4.14675 17.2035 2.06075 12.3485C1.97975 12.1595 1.97975 11.9455 2.06075 11.7565C4.14675 6.90249 7.86175 4.00349 11.9967 4.00049H12.0028ZM11.9998 5.50049C8.56375 5.50149 5.42975 7.94449 3.56975 12.0525C5.42975 16.1615 8.56275 18.6045 11.9998 18.6055C15.4368 18.6045 18.5697 16.1615 20.4297 12.0525C18.5697 7.94449 15.4368 5.50149 11.9998 5.50049ZM11.9995 8.14129C14.1565 8.14129 15.9115 9.89629 15.9115 12.0533C15.9115 14.2093 14.1565 15.9633 11.9995 15.9633C9.84245 15.9633 8.08845 14.2093 8.08845 12.0533C8.08845 9.89629 9.84245 8.14129 11.9995 8.14129ZM11.9995 9.64129C10.6695 9.64129 9.58845 10.7233 9.58845 12.0533C9.58845 13.3823 10.6695 14.4633 11.9995 14.4633C13.3295 14.4633 14.4115 13.3823 14.4115 12.0533C14.4115 10.7233 13.3295 9.64129 11.9995 9.64129Z" fill="#666666"/>
</svg>
