<svg xmlns="http://www.w3.org/2000/svg" width="30" height="31" viewBox="0 0 30 31" fill="none">
  <circle cx="15" cy="15.3887" r="9.375" transform="rotate(-180 15 15.3887)" fill="#333333"/>
  <path d="M14.6875 27.8887L14.3378 27.8839C7.59928 27.6985 2.1875 22.1717 2.1875 15.3887C2.1875 8.50117 7.7875 2.88867 14.6875 2.88867C21.575 2.88867 27.1875 8.50117 27.1875 15.3887C27.1875 22.2887 21.575 27.8887 14.6875 27.8887ZM12.2125 20.3887C12.5875 20.7637 13.175 20.7637 13.5375 20.3887L17.9 16.0512C18.075 15.8762 18.175 15.6387 18.175 15.3887C18.175 15.1387 18.075 14.9012 17.9 14.7262L13.5375 10.3887C13.3625 10.2012 13.125 10.1137 12.8875 10.1137C12.6375 10.1137 12.4 10.2012 12.2125 10.3887C11.85 10.7637 11.85 11.3512 12.225 11.7137L15.9125 15.3887L12.225 19.0637C11.85 19.4262 11.85 20.0262 12.2125 20.3887Z" fill="#E6E6E6"/>
</svg>