<svg width="24" height="24" viewBox="0 0 24 24" fill="none" xmlns="http://www.w3.org/2000/svg">
<path d="M24 13.6702C24 10.3918 22.6781 7.41687 20.5399 5.24892C20.5232 5.22673 20.5054 5.20501 20.4852 5.18479C20.465 5.16457 20.4434 5.14678 20.4212 5.13018C18.2532 2.99198 15.2782 1.67017 12 1.67017C8.72176 1.67017 5.74678 2.99205 3.57875 5.13018C3.55656 5.14686 3.53492 5.16464 3.5147 5.18479C3.49448 5.20501 3.4767 5.22665 3.46001 5.24892C1.32189 7.41687 0 10.3918 0 13.6702C0 16.8751 1.24792 19.888 3.51384 22.1544C3.51415 22.1548 3.51447 22.1551 3.51478 22.1555C3.51502 22.1556 3.51517 22.1559 3.51541 22.156C3.51572 22.1563 3.51604 22.1566 3.51635 22.157C3.63155 22.2722 3.78256 22.3297 3.93356 22.3297C4.08464 22.3297 4.23572 22.2721 4.35092 22.1568C4.36076 22.147 4.36965 22.1365 4.37862 22.1261L6.19727 20.3074C6.42775 20.0768 6.42775 19.7032 6.19727 19.4727C5.96679 19.2423 5.5931 19.2423 5.3627 19.4727L3.94348 20.892C2.28858 19.0504 1.3285 16.7327 1.19646 14.2603H3.20357C3.5295 14.2603 3.79373 13.9962 3.79373 13.6702C3.79373 13.3442 3.5295 13.08 3.20357 13.08H1.19662C1.33385 10.5406 2.35082 8.23137 3.94733 6.45215L5.3627 7.86752C5.4779 7.98272 5.62898 8.04032 5.77999 8.04032C5.93099 8.04032 6.08207 7.98272 6.19727 7.86752C6.42775 7.63696 6.42775 7.26335 6.19727 7.03287L4.78198 5.61742C6.56129 4.02091 8.8704 3.00394 11.4098 2.86678V4.87381C11.4098 5.19982 11.6741 5.46398 12 5.46398C12.3259 5.46398 12.5902 5.19982 12.5902 4.87381V2.86678C15.1296 3.00394 17.4387 4.02099 19.218 5.6175L17.8027 7.03287C17.5722 7.26343 17.5722 7.63704 17.8027 7.86752C17.9179 7.98272 18.0689 8.04032 18.2199 8.04032C18.3709 8.04032 18.522 7.98272 18.6372 7.86752L20.0526 6.45215C21.6491 8.23145 22.6662 10.5406 22.8033 13.08H20.7963C20.4703 13.08 20.2061 13.3442 20.2061 13.6702C20.2061 13.9962 20.4703 14.2603 20.7963 14.2603H22.8034C22.6713 16.7327 21.7113 19.0505 20.0564 20.892L18.6372 19.4727C18.4068 19.2423 18.0331 19.2423 17.8027 19.4727C17.5722 19.7033 17.5722 20.0769 17.8027 20.3074L19.6507 22.1554C19.7659 22.2706 19.9169 22.3282 20.0679 22.3282C20.1434 22.3282 20.2189 22.3138 20.29 22.285C20.361 22.2562 20.4276 22.213 20.4853 22.1554C22.7518 19.8888 24 16.8754 24 13.6702Z" fill="#666666"/>
<path d="M14.7113 6.90238C14.4086 6.78112 14.0652 6.92811 13.944 7.23074L12.2386 11.4878C12.1591 11.4793 12.0796 11.4735 12.0001 11.4735C11.1694 11.4735 10.4191 11.9336 10.0418 12.6742C9.64744 13.4484 9.74847 14.3735 10.3119 15.1485C10.3695 15.2278 10.4419 15.3003 10.5217 15.3582C10.9794 15.691 11.4906 15.8669 12.0001 15.8669C12.8307 15.8669 13.5811 15.4068 13.9583 14.6662C14.3527 13.892 14.2517 12.967 13.6886 12.1924C13.631 12.113 13.5585 12.0403 13.4785 11.982C13.4354 11.9507 13.3914 11.9222 13.3474 11.8937L15.0396 7.66959C15.1608 7.36711 15.0138 7.02356 14.7113 6.90238ZM12.9065 14.1304C12.7317 14.4734 12.3844 14.6865 12 14.6865C11.7479 14.6865 11.4941 14.5984 11.2454 14.4247C10.9622 14.0179 10.9065 13.577 11.0936 13.2099C11.2683 12.8669 11.6156 12.6538 12.0001 12.6538C12.1227 12.6538 12.2456 12.675 12.3682 12.7164C12.3722 12.718 12.3759 12.7201 12.38 12.7218C12.3929 12.7269 12.4059 12.7311 12.4188 12.7352C12.5314 12.7784 12.6434 12.8379 12.7545 12.9155C13.0377 13.3223 13.0934 13.7633 12.9065 14.1304Z" fill="#666666"/>
</svg>
