<svg width="32" height="32" viewBox="0 0 32 32" fill="none" xmlns="http://www.w3.org/2000/svg">
<path fill-rule="evenodd" clip-rule="evenodd" d="M18.2892 20.3885C19.8945 20.3885 21.2012 21.6858 21.2012 23.2805V27.3818C21.2012 27.7245 21.4758 27.9992 21.8278 28.0072H24.3692C26.3718 28.0072 27.9998 26.3992 27.9998 24.4232V12.7912C27.9905 12.1112 27.6665 11.4712 27.1105 11.0458L18.3198 4.03516C17.1398 3.1005 15.4892 3.1005 14.3052 4.03783L5.5745 11.0432C4.99717 11.4818 4.67317 12.1218 4.6665 12.8138V24.4232C4.6665 26.3992 6.2945 28.0072 8.29717 28.0072H10.8625C11.2238 28.0072 11.5172 27.7205 11.5172 27.3685C11.5172 27.2912 11.5265 27.2138 11.5425 27.1405V23.2805C11.5425 21.6952 12.8412 20.3992 14.4345 20.3885H18.2892ZM24.3692 30.0072H21.8038C20.3345 29.9725 19.2012 28.8192 19.2012 27.3818V23.2805C19.2012 22.7885 18.7918 22.3885 18.2892 22.3885H14.4412C13.9492 22.3912 13.5425 22.7925 13.5425 23.2805V27.3685C13.5425 27.4685 13.5292 27.5645 13.5012 27.6552C13.3572 28.9752 12.2292 30.0072 10.8625 30.0072H8.29717C5.19184 30.0072 2.6665 27.5018 2.6665 24.4232V12.8045C2.67984 11.4792 3.2905 10.2658 4.34517 9.46716L13.0585 2.47383C14.9772 0.95383 17.6505 0.95383 19.5652 2.47116L28.3412 9.47116C29.3718 10.2565 29.9825 11.4672 29.9998 12.7765V24.4232C29.9998 27.5018 27.4745 30.0072 24.3692 30.0072Z" fill="#666666"/>
</svg>
