<svg width="24" height="24" viewBox="0 0 24 24" fill="none" xmlns="http://www.w3.org/2000/svg">
<path d="M7.37319 12.2808H5.56412C4.00178 12.2846 2.73619 13.5502 2.73233 15.1126V16.0194C2.73233 16.1907 2.87117 16.3295 3.04242 16.3295H9.89372C9.89489 16.3295 9.89606 16.3295 9.89723 16.3295C10.0685 16.3282 10.2063 16.1883 10.205 16.0171V15.1126C10.2011 13.5502 8.93553 12.2846 7.37319 12.2808ZM9.58479 15.707H3.35252V15.1126C3.35889 13.8938 4.34534 12.9073 5.56412 12.9009H7.37319C8.59197 12.9073 9.57842 13.8938 9.58479 15.1126V15.707Z" fill="#666666"/>
<path d="M20.9611 15.0588H12.6529C12.4967 15.0684 12.3721 15.1931 12.3625 15.3493C12.352 15.5202 12.482 15.6673 12.6529 15.6779H20.9611C21.1174 15.6683 21.2419 15.5436 21.2515 15.3874C21.262 15.2165 21.132 15.0694 20.9611 15.0588Z" fill="#666666"/>
<path d="M7.92667 11.2558L7.9454 11.2382C7.94563 11.238 7.94586 11.2378 7.94616 11.2375C8.76164 10.4216 8.76135 9.09906 7.9454 8.28357C7.55433 7.89087 7.0229 7.67018 6.46865 7.67041C5.92301 7.67018 5.39907 7.88402 5.00946 8.26602L4.99074 8.28357C4.99051 8.28381 4.99027 8.28404 4.98998 8.28434C4.17449 9.10023 4.17479 10.4227 4.99074 11.2382C5.79903 12.0482 7.10879 12.056 7.92667 11.2558ZM5.43189 8.72356L5.4471 8.70834C6.02387 8.15228 6.93929 8.15901 7.50776 8.72356L7.51127 8.72238C8.08517 9.2967 8.08517 10.2274 7.51127 10.8018L7.49605 10.817C6.91916 11.3757 6.00112 11.3694 5.43189 10.8029C4.85799 10.2286 4.85799 9.29787 5.43189 8.72356Z" fill="#666666"/>
<path d="M21.9347 3.35718H2.06533C0.926007 3.3604 0.00321794 4.28318 0 5.42251V18.5775C0.00321794 19.7168 0.926007 20.6396 2.06533 20.6428H21.9347C23.074 20.6396 23.9968 19.7168 24 18.5775V5.42251C23.9968 4.28318 23.074 3.3604 21.9347 3.35718ZM23.381 18.5775C23.3784 19.3752 22.7324 20.0212 21.9347 20.0238H2.06533C1.26764 20.0212 0.621589 19.3752 0.619015 18.5775V5.42251C0.621589 4.62481 1.26764 3.97877 2.06533 3.97619H21.9347C22.7324 3.97877 23.3784 4.62481 23.381 5.42251V18.5775Z" fill="#666666"/>
<path d="M20.9611 8.32324H12.6529C12.4967 8.33284 12.3721 8.45746 12.3624 8.61374C12.3519 8.7847 12.482 8.93178 12.6529 8.94226H20.9611C21.1174 8.93266 21.2419 8.80804 21.2516 8.65177C21.262 8.48086 21.132 8.33377 20.9611 8.32324Z" fill="#666666"/>
<path d="M20.9611 11.6912H12.6529C12.4967 11.7008 12.3721 11.8254 12.3624 11.9817C12.3519 12.1526 12.482 12.2997 12.6529 12.3102H20.9611C21.1174 12.3006 21.2419 12.176 21.2516 12.0197C21.262 11.8488 21.132 11.7017 20.9611 11.6912Z" fill="#666666"/>
<path d="M20.9611 10.0071H12.6529C12.4967 10.0167 12.3721 10.1413 12.3624 10.2976C12.3519 10.4685 12.482 10.6156 12.6529 10.6261H20.9611C21.1174 10.6165 21.2419 10.4919 21.2516 10.3356C21.262 10.1647 21.132 10.0176 20.9611 10.0071Z" fill="#666666"/>
<path d="M20.9611 13.375H12.6529C12.4967 13.3846 12.3721 13.5092 12.3625 13.6654C12.352 13.8364 12.482 13.9835 12.6529 13.994H20.9611C21.1174 13.9844 21.2419 13.8598 21.2515 13.7036C21.262 13.5326 21.132 13.3855 20.9611 13.375Z" fill="#666666"/>
</svg>
