<svg width="24" height="25" viewBox="0 0 24 25" fill="none" xmlns="http://www.w3.org/2000/svg">
<g clip-path="url(#clip0_290_3578)">
<path d="M12 0.96875C9.62663 0.96875 7.30655 1.67254 5.33316 2.99111C3.35977 4.30969 1.8217 6.18383 0.913451 8.37655C0.00519943 10.5693 -0.232441 12.9821 0.230582 15.3098C0.693605 17.6376 1.83649 19.7758 3.51472 21.454C5.19295 23.1323 7.33115 24.2751 9.65892 24.7382C11.9867 25.2012 14.3995 24.9636 16.5922 24.0553C18.7849 23.147 20.6591 21.609 21.9776 19.6356C23.2962 17.6622 24 15.3421 24 12.9687C23.9966 9.78721 22.7312 6.73696 20.4815 4.48727C18.2318 2.23758 15.1815 0.972191 12 0.96875V0.96875ZM12 22.9687C10.0222 22.9687 8.08879 22.3823 6.4443 21.2834C4.79981 20.1846 3.51809 18.6228 2.76121 16.7956C2.00433 14.9683 1.8063 12.9577 2.19215 11.0178C2.578 9.07804 3.53041 7.29621 4.92894 5.89768C6.32746 4.49916 8.10929 3.54675 10.0491 3.1609C11.9889 2.77504 13.9996 2.97308 15.8268 3.72995C17.6541 4.48683 19.2159 5.76856 20.3147 7.41305C21.4135 9.05754 22 10.9909 22 12.9687C21.9971 15.62 20.9426 18.1619 19.0679 20.0366C17.1931 21.9113 14.6513 22.9658 12 22.9687Z" fill="#666666"/>
<path d="M12 10.9688H11C10.7348 10.9688 10.4804 11.0741 10.2929 11.2616C10.1054 11.4492 10 11.7035 10 11.9687C10 12.234 10.1054 12.4883 10.2929 12.6759C10.4804 12.8634 10.7348 12.9687 11 12.9687H12V18.9687C12 19.234 12.1054 19.4883 12.2929 19.6759C12.4804 19.8634 12.7348 19.9687 13 19.9687C13.2652 19.9687 13.5196 19.8634 13.7071 19.6759C13.8946 19.4883 14 19.234 14 18.9687V12.9687C14 12.4383 13.7893 11.9296 13.4142 11.5545C13.0391 11.1795 12.5304 10.9688 12 10.9688Z" fill="#666666"/>
<path d="M11.5 8.96875C12.3284 8.96875 13 8.29718 13 7.46875C13 6.64032 12.3284 5.96875 11.5 5.96875C10.6716 5.96875 10 6.64032 10 7.46875C10 8.29718 10.6716 8.96875 11.5 8.96875Z" fill="#666666"/>
</g>
<defs>
<clipPath id="clip0_290_3578">
<rect width="24" height="24" fill="white" transform="translate(0 0.641602)"/>
</clipPath>
</defs>
</svg>
