<svg width="24" height="25" viewBox="0 0 24 25" fill="none" xmlns="http://www.w3.org/2000/svg">
<g clip-path="url(#clip0_290_2258)">
<path d="M11.3156 12.0626L9.17334 9.92027L10.1696 8.92404L11.3156 10.07L13.8266 7.55908L14.8229 8.55532L11.3156 12.0626Z" fill="#666666"/>
<path d="M11.9999 15.9895C8.66432 15.9895 5.95068 13.2758 5.95068 9.94029C5.95068 6.60475 8.66432 3.89111 11.9999 3.89111C15.3354 3.89111 18.049 6.60475 18.049 9.94029C18.049 13.2758 15.3354 15.9895 11.9999 15.9895ZM11.9999 5.30004C9.44118 5.30004 7.35961 7.38166 7.35961 9.94029C7.35961 12.4989 9.44118 14.5805 11.9999 14.5805C14.5585 14.5805 16.6401 12.4989 16.6401 9.94029C16.6401 7.38166 14.5585 5.30004 11.9999 5.30004Z" fill="#666666"/>
<path d="M11.9895 24.3887L8.74098 18.9212C6.95879 18.2755 5.42598 17.127 4.2954 15.587C3.08701 13.9409 2.44824 11.9884 2.44824 9.94049C2.44824 4.67356 6.73318 0.388672 12.0001 0.388672C17.2669 0.388672 21.5519 4.67356 21.5519 9.94049C21.5519 13.9164 19.083 17.4749 15.3821 18.8755L11.9895 24.3887ZM12.0001 1.79759C7.51004 1.79759 3.85716 5.45047 3.85716 9.94049C3.85716 13.4586 6.09943 16.5654 9.4367 17.6713L9.68635 17.7541L12.0106 21.666L14.4421 17.7145L14.679 17.632C17.9471 16.4938 20.1429 13.4028 20.1429 9.94049C20.1429 5.45047 16.4901 1.79759 12.0001 1.79759Z" fill="#666666"/>
</g>
<defs>
<clipPath id="clip0_290_2258">
<rect width="24" height="24" fill="white" transform="translate(0 0.388672)"/>
</clipPath>
</defs>
</svg>
