<svg width="17" height="21" viewBox="0 0 17 21" fill="none" xmlns="http://www.w3.org/2000/svg">
<path d="M8.5 4.75C7.78922 4.75 7.09441 4.96077 6.50342 5.35566C5.91243 5.75054 5.45181 6.31181 5.17981 6.96848C4.9078 7.62515 4.83664 8.34774 4.9753 9.04486C5.11397 9.74198 5.45624 10.3823 5.95884 10.8849C6.46143 11.3875 7.10178 11.7298 7.79889 11.8684C8.49601 12.0071 9.2186 11.9359 9.87527 11.6639C10.5319 11.3919 11.0932 10.9313 11.4881 10.3403C11.883 9.74934 12.0938 9.05453 12.0938 8.34375C12.0938 7.39063 11.7151 6.47654 11.0412 5.80259C10.3672 5.12863 9.45312 4.75 8.5 4.75ZM8.5 10.5C8.07353 10.5 7.65665 10.3735 7.30205 10.1366C6.94746 9.89968 6.67109 9.56291 6.50788 9.16891C6.34468 8.77491 6.30198 8.34136 6.38518 7.92309C6.46838 7.50482 6.67374 7.12061 6.9753 6.81905C7.27686 6.51749 7.66107 6.31213 8.07934 6.22893C8.49761 6.14573 8.93116 6.18843 9.32516 6.35163C9.71916 6.51484 10.0559 6.79121 10.2929 7.1458C10.5298 7.5004 10.6562 7.91728 10.6562 8.34375C10.6562 8.91562 10.4291 9.46408 10.0247 9.86845C9.62032 10.2728 9.07187 10.5 8.5 10.5ZM8.5 0.4375C6.40386 0.439878 4.39426 1.27362 2.91206 2.75581C1.42987 4.23801 0.596128 6.24761 0.59375 8.34375C0.59375 11.1648 1.89738 14.1548 4.36719 16.9912C5.47696 18.2729 6.72599 19.427 8.09121 20.4322C8.21206 20.5169 8.35604 20.5623 8.50359 20.5623C8.65115 20.5623 8.79513 20.5169 8.91598 20.4322C10.2787 19.4266 11.5253 18.2725 12.6328 16.9912C15.099 14.1548 16.4062 11.1648 16.4062 8.34375C16.4039 6.24761 15.5701 4.23801 14.0879 2.75581C12.6057 1.27362 10.5961 0.439878 8.5 0.4375ZM8.5 18.9453C7.01488 17.7773 2.03125 13.4873 2.03125 8.34375C2.03125 6.62813 2.71278 4.98278 3.9259 3.76965C5.13903 2.55653 6.78438 1.875 8.5 1.875C10.2156 1.875 11.861 2.55653 13.0741 3.76965C14.2872 4.98278 14.9688 6.62813 14.9688 8.34375C14.9688 13.4855 9.98512 17.7773 8.5 18.9453Z" fill="#0C3C9E"/>
</svg>
