<svg width="24" height="25" viewBox="0 0 24 25" fill="none" xmlns="http://www.w3.org/2000/svg">
<path fill-rule="evenodd" clip-rule="evenodd" d="M12.3749 2.97052C15.2949 2.97052 17.6729 5.34852 17.6729 8.27152L17.6728 9.84812C19.448 10.4659 20.725 12.1559 20.725 14.1393V18.4283C20.725 20.9333 18.688 22.9703 16.183 22.9703H8.542C6.037 22.9703 4 20.9333 4 18.4283V14.1393C4 12.1563 5.27652 10.4666 7.05121 9.84847L7.0519 8.27152C7.0579 6.83152 7.6149 5.50252 8.6199 4.50652C9.6259 3.50952 10.9539 2.93252 12.3749 2.97052ZM16.183 11.0973H8.542C6.864 11.0973 5.5 12.4613 5.5 14.1393V18.4283C5.5 20.1063 6.864 21.4703 8.542 21.4703H16.183C17.86 21.4703 19.225 20.1063 19.225 18.4283V14.1393C19.225 12.4613 17.86 11.0973 16.183 11.0973ZM12.3623 14.4231C12.7763 14.4231 13.1123 14.7591 13.1123 15.1731V17.3941C13.1123 17.8081 12.7763 18.1441 12.3623 18.1441C11.9483 18.1441 11.6123 17.8081 11.6123 17.3941V15.1731C11.6123 14.7591 11.9483 14.4231 12.3623 14.4231ZM12.3719 4.47052H12.3559C11.3429 4.47052 10.3939 4.86052 9.6769 5.57152C8.9549 6.28552 8.5559 7.23852 8.5519 8.25452L8.551 9.59675H16.172L16.1729 8.27152C16.1729 6.17552 14.4679 4.47052 12.3719 4.47052Z" fill="#666666"/>
</svg>
