<svg xmlns="http://www.w3.org/2000/svg" width="28" height="28" viewBox="0 0 28 28" fill="none">
  <g clip-path="url(#clip0_290_3503)">
    <path d="M17.786 20.8026H10.2144V7.1958H17.786V20.8026Z" fill="#FF5F00"/>
    <path d="M10.6948 14.0001C10.6937 12.6897 10.9907 11.3963 11.5633 10.2177C12.1359 9.0391 12.9692 8.00622 14 7.19725C12.7235 6.19406 11.1905 5.57023 9.57625 5.39704C7.96198 5.22385 6.33155 5.50829 4.87129 6.21785C3.41103 6.92742 2.17984 8.03348 1.31843 9.40965C0.457021 10.7858 0.000139616 12.3766 0 14.0001C0.000311553 15.6234 0.457246 17.2139 1.3186 18.5899C2.17995 19.9658 3.41098 21.0718 4.87103 21.7813C6.33109 22.4908 7.96129 22.7753 9.57537 22.6023C11.1894 22.4293 12.7223 21.8058 13.9988 20.8029C12.9684 19.9937 12.1354 18.9608 11.563 17.7822C10.9906 16.6036 10.6937 15.3103 10.6948 14.0001Z" fill="#EB001B"/>
    <path d="M28 14.0001C27.9999 15.6236 27.543 17.2144 26.6816 18.5905C25.8202 19.9667 24.589 21.0727 23.1287 21.7823C21.6684 22.4919 20.038 22.7763 18.4238 22.6031C16.8095 22.4299 15.2765 21.8061 14 20.8029C16.0125 19.2186 17.3052 16.7604 17.3052 14.0001C17.3052 11.2397 16.0125 8.78158 14 7.19725C15.2765 6.19406 16.8095 5.57023 18.4238 5.39704C20.038 5.22385 21.6684 5.50829 23.1287 6.21785C24.589 6.92742 25.8202 8.03348 26.6816 9.40965C27.543 10.7858 27.9999 12.3766 28 14.0001Z" fill="#F79E1B"/>
  </g>
  <defs>
    <clipPath id="clip0_290_3503">
      <rect width="28" height="28" fill="white"/>
    </clipPath>
  </defs>
</svg>