<svg width="120" height="120" viewBox="0 0 120 120" fill="none" xmlns="http://www.w3.org/2000/svg">
<path d="M52.9036 43.9513L51.5279 42.5756L53.8256 40.2779L55.2011 41.6534C56.3094 42.7637 57.7869 43.3749 59.3568 43.3749H60.6431C62.2131 43.3749 63.6886 42.7636 64.7986 41.6536L66.1743 40.2779L68.472 42.5756L67.0963 43.9513C65.3731 45.6745 63.0817 46.6249 60.6431 46.6249H59.3568C56.9182 46.6249 54.6268 45.6745 52.9036 43.9513Z" fill="#666666" stroke="white" stroke-width="0.5"/>
<path d="M65.875 28.375H69.125V31.625H65.875V28.375Z" fill="#666666" stroke="white" stroke-width="0.5"/>
<path d="M50.875 28.375H54.125V31.625H50.875V28.375Z" fill="#666666" stroke="white" stroke-width="0.5"/>
<mask id="path-4-inside-1_290_1996" fill="white">
<path d="M116.25 106.875H106.159L103.346 101.25L106.159 95.625H116.25C117.007 95.625 117.694 95.1694 117.982 94.4681C118.273 93.7669 118.112 92.9606 117.575 92.4244L111.724 86.5725C110.329 85.1756 108.395 84.375 106.421 84.375H105V78.465C105 75.9131 104.492 73.4269 103.483 71.0794L102.999 69.9506C100.412 63.9094 94.7567 59.6175 88.243 58.7494L72.1461 56.6025C71.3792 56.4994 70.7642 55.9481 70.5749 55.2L69.6861 51.6469C75.1086 48.3581 78.7499 42.4162 78.7499 35.625V32.1056L80.5686 24.8287C80.6061 24.6806 80.6249 24.5287 80.6249 24.375V20.625C80.6249 10.2863 72.2136 1.875 61.8749 1.875H58.1249C47.7861 1.875 39.3749 10.2863 39.3749 20.625V24.375C39.3749 24.5287 39.3936 24.6806 39.4311 24.8287L41.2499 32.1056V35.625C41.2499 42.4162 44.8911 48.3563 50.3117 51.6469L49.4211 55.2C49.2336 55.9481 48.6186 56.4994 47.8517 56.6025L31.7549 58.7494C25.2392 59.6175 19.5861 63.9094 16.9986 69.9506L16.5149 71.0794C15.508 73.4269 14.9999 75.9112 14.9999 78.465V84.375H13.5786C11.6042 84.375 9.67112 85.1756 8.27612 86.5725L2.42424 92.4244C1.88799 92.9606 1.72674 93.7669 2.01737 94.4681C2.30612 95.1694 2.99237 95.625 3.74987 95.625H13.8411L16.6536 101.25L13.8411 106.875H3.74987C2.99237 106.875 2.30612 107.331 2.01737 108.032C1.72674 108.733 1.88799 109.539 2.42424 110.076L8.27612 115.927C9.67112 117.324 11.6042 118.125 13.5786 118.125H17.9211C20.2124 118.125 22.3442 117.099 23.7767 115.311L26.2105 112.269C27.9992 110.033 30.6674 108.75 33.5324 108.75H86.4674C89.3305 108.75 92.0005 110.033 93.7874 112.269L96.2211 115.311C97.6536 117.099 99.7874 118.125 102.077 118.125H106.419C108.394 118.125 110.327 117.324 111.722 115.927L117.574 110.076C118.11 109.539 118.271 108.733 117.98 108.032C117.694 107.331 117.007 106.875 116.25 106.875ZM99.5549 71.4263L100.039 72.555C100.841 74.4337 101.25 76.4231 101.25 78.465V84.4688C99.283 84.6862 97.4774 85.6219 96.2211 87.1912L93.7874 90.2325C92.7692 91.5056 91.4605 92.4562 89.998 93.0506V62.9663C94.2355 64.2225 97.7886 67.3069 99.5549 71.4263ZM33.7499 62.2669L37.4999 61.7663V82.5C37.4999 83.5369 38.338 84.375 39.3749 84.375H80.6249C81.6617 84.375 82.4999 83.5369 82.4999 82.5V61.7663L86.2499 62.2669V93.75H33.7499V62.2669ZM59.9999 75C68.0136 75 74.5611 68.6775 74.9605 60.7612L78.7499 61.2675V80.625H41.2499V61.2675L45.0392 60.7631C45.4386 68.6775 51.9861 75 59.9999 75ZM58.1249 5.625H61.8749C69.3542 5.625 75.5624 11.13 76.6855 18.3L68.458 16.6556C62.8442 15.5306 57.1536 15.5306 51.5436 16.6556L43.3142 18.3C44.4374 11.13 50.6455 5.625 58.1249 5.625ZM73.0236 21.3919L69.2905 23.2575C67.8299 23.9888 66.1949 24.375 64.5617 24.375H55.4399C53.8067 24.375 52.1717 23.9888 50.7111 23.2575L46.978 21.3919L52.2805 20.3325C57.403 19.3069 62.6005 19.3069 67.723 20.3325L73.0236 21.3919ZM44.9999 35.625V31.875C44.9999 31.7213 44.9811 31.5694 44.9436 31.4212L43.1249 24.1444V23.6588L49.0311 26.6119C51.0111 27.6019 53.2274 28.125 55.438 28.125H64.5599C66.7724 28.125 68.9867 27.6019 70.9667 26.6119L76.8749 23.6588V24.1444L75.0561 31.4212C75.0186 31.5694 74.9999 31.7213 74.9999 31.875V35.625C74.9999 43.8956 68.2705 50.625 59.9999 50.625C51.7292 50.625 44.9999 43.8956 44.9999 35.625ZM53.0605 56.1094L53.7655 53.2875C55.7192 53.9794 57.8117 54.375 59.9999 54.375C62.188 54.375 64.2786 53.9794 66.2324 53.2875L66.9374 56.1094C67.4642 58.2206 69.1311 59.7919 71.2386 60.2344C71.113 66.3281 66.1255 71.25 59.9999 71.25C53.8742 71.25 48.8867 66.3281 48.7611 60.2325C50.8667 59.7919 52.5336 58.2206 53.0605 56.1094ZM19.9611 72.5531L20.4449 71.4244C22.2092 67.305 25.7642 64.2206 29.9999 62.9644V93.0469C28.5374 92.4525 27.2286 91.5019 26.2105 90.2288L23.7767 87.1875C22.5205 85.6181 20.7167 84.6844 18.748 84.465V78.4613C18.7499 76.4231 19.1586 74.4337 19.9611 72.5531ZM109.072 113.276C108.375 113.974 107.407 114.375 106.421 114.375H102.079C100.935 114.375 99.8661 113.863 99.1517 112.967L96.718 109.926C94.213 106.796 90.478 105 86.4674 105H33.5324C29.5217 105 25.7867 106.796 23.2817 109.926L20.848 112.967C20.1336 113.863 19.0667 114.375 17.923 114.375H13.5786C12.5924 114.375 11.6249 113.974 10.9274 113.276L8.27612 110.625H14.9999C15.7105 110.625 16.3592 110.224 16.678 109.588L20.428 102.088C20.6924 101.561 20.6924 100.939 20.428 100.41L16.678 92.91C16.3592 92.2762 15.7105 91.875 14.9999 91.875H8.27612L10.9274 89.2237C11.6249 88.5262 12.5924 88.125 13.5786 88.125H17.9211C19.0649 88.125 20.1336 88.6369 20.848 89.5331L23.2817 92.5744C25.7867 95.7038 29.5217 97.5 33.5324 97.5H86.4674C90.478 97.5 94.213 95.7038 96.718 92.5744L99.1517 89.5331C99.8661 88.6369 100.933 88.125 102.077 88.125H106.419C107.405 88.125 108.373 88.5262 109.07 89.2237L111.724 91.875H105C104.289 91.875 103.64 92.2763 103.322 92.9119L99.5717 100.412C99.3074 100.939 99.3074 101.561 99.5717 102.09L103.322 109.59C103.64 110.224 104.289 110.625 105 110.625H111.724L109.072 113.276Z"/>
</mask>
<path d="M116.25 106.875H106.159L103.346 101.25L106.159 95.625H116.25C117.007 95.625 117.694 95.1694 117.982 94.4681C118.273 93.7669 118.112 92.9606 117.575 92.4244L111.724 86.5725C110.329 85.1756 108.395 84.375 106.421 84.375H105V78.465C105 75.9131 104.492 73.4269 103.483 71.0794L102.999 69.9506C100.412 63.9094 94.7567 59.6175 88.243 58.7494L72.1461 56.6025C71.3792 56.4994 70.7642 55.9481 70.5749 55.2L69.6861 51.6469C75.1086 48.3581 78.7499 42.4162 78.7499 35.625V32.1056L80.5686 24.8287C80.6061 24.6806 80.6249 24.5287 80.6249 24.375V20.625C80.6249 10.2863 72.2136 1.875 61.8749 1.875H58.1249C47.7861 1.875 39.3749 10.2863 39.3749 20.625V24.375C39.3749 24.5287 39.3936 24.6806 39.4311 24.8287L41.2499 32.1056V35.625C41.2499 42.4162 44.8911 48.3563 50.3117 51.6469L49.4211 55.2C49.2336 55.9481 48.6186 56.4994 47.8517 56.6025L31.7549 58.7494C25.2392 59.6175 19.5861 63.9094 16.9986 69.9506L16.5149 71.0794C15.508 73.4269 14.9999 75.9112 14.9999 78.465V84.375H13.5786C11.6042 84.375 9.67112 85.1756 8.27612 86.5725L2.42424 92.4244C1.88799 92.9606 1.72674 93.7669 2.01737 94.4681C2.30612 95.1694 2.99237 95.625 3.74987 95.625H13.8411L16.6536 101.25L13.8411 106.875H3.74987C2.99237 106.875 2.30612 107.331 2.01737 108.032C1.72674 108.733 1.88799 109.539 2.42424 110.076L8.27612 115.927C9.67112 117.324 11.6042 118.125 13.5786 118.125H17.9211C20.2124 118.125 22.3442 117.099 23.7767 115.311L26.2105 112.269C27.9992 110.033 30.6674 108.75 33.5324 108.75H86.4674C89.3305 108.75 92.0005 110.033 93.7874 112.269L96.2211 115.311C97.6536 117.099 99.7874 118.125 102.077 118.125H106.419C108.394 118.125 110.327 117.324 111.722 115.927L117.574 110.076C118.11 109.539 118.271 108.733 117.98 108.032C117.694 107.331 117.007 106.875 116.25 106.875ZM99.5549 71.4263L100.039 72.555C100.841 74.4337 101.25 76.4231 101.25 78.465V84.4688C99.283 84.6862 97.4774 85.6219 96.2211 87.1912L93.7874 90.2325C92.7692 91.5056 91.4605 92.4562 89.998 93.0506V62.9663C94.2355 64.2225 97.7886 67.3069 99.5549 71.4263ZM33.7499 62.2669L37.4999 61.7663V82.5C37.4999 83.5369 38.338 84.375 39.3749 84.375H80.6249C81.6617 84.375 82.4999 83.5369 82.4999 82.5V61.7663L86.2499 62.2669V93.75H33.7499V62.2669ZM59.9999 75C68.0136 75 74.5611 68.6775 74.9605 60.7612L78.7499 61.2675V80.625H41.2499V61.2675L45.0392 60.7631C45.4386 68.6775 51.9861 75 59.9999 75ZM58.1249 5.625H61.8749C69.3542 5.625 75.5624 11.13 76.6855 18.3L68.458 16.6556C62.8442 15.5306 57.1536 15.5306 51.5436 16.6556L43.3142 18.3C44.4374 11.13 50.6455 5.625 58.1249 5.625ZM73.0236 21.3919L69.2905 23.2575C67.8299 23.9888 66.1949 24.375 64.5617 24.375H55.4399C53.8067 24.375 52.1717 23.9888 50.7111 23.2575L46.978 21.3919L52.2805 20.3325C57.403 19.3069 62.6005 19.3069 67.723 20.3325L73.0236 21.3919ZM44.9999 35.625V31.875C44.9999 31.7213 44.9811 31.5694 44.9436 31.4212L43.1249 24.1444V23.6588L49.0311 26.6119C51.0111 27.6019 53.2274 28.125 55.438 28.125H64.5599C66.7724 28.125 68.9867 27.6019 70.9667 26.6119L76.8749 23.6588V24.1444L75.0561 31.4212C75.0186 31.5694 74.9999 31.7213 74.9999 31.875V35.625C74.9999 43.8956 68.2705 50.625 59.9999 50.625C51.7292 50.625 44.9999 43.8956 44.9999 35.625ZM53.0605 56.1094L53.7655 53.2875C55.7192 53.9794 57.8117 54.375 59.9999 54.375C62.188 54.375 64.2786 53.9794 66.2324 53.2875L66.9374 56.1094C67.4642 58.2206 69.1311 59.7919 71.2386 60.2344C71.113 66.3281 66.1255 71.25 59.9999 71.25C53.8742 71.25 48.8867 66.3281 48.7611 60.2325C50.8667 59.7919 52.5336 58.2206 53.0605 56.1094ZM19.9611 72.5531L20.4449 71.4244C22.2092 67.305 25.7642 64.2206 29.9999 62.9644V93.0469C28.5374 92.4525 27.2286 91.5019 26.2105 90.2288L23.7767 87.1875C22.5205 85.6181 20.7167 84.6844 18.748 84.465V78.4613C18.7499 76.4231 19.1586 74.4337 19.9611 72.5531ZM109.072 113.276C108.375 113.974 107.407 114.375 106.421 114.375H102.079C100.935 114.375 99.8661 113.863 99.1517 112.967L96.718 109.926C94.213 106.796 90.478 105 86.4674 105H33.5324C29.5217 105 25.7867 106.796 23.2817 109.926L20.848 112.967C20.1336 113.863 19.0667 114.375 17.923 114.375H13.5786C12.5924 114.375 11.6249 113.974 10.9274 113.276L8.27612 110.625H14.9999C15.7105 110.625 16.3592 110.224 16.678 109.588L20.428 102.088C20.6924 101.561 20.6924 100.939 20.428 100.41L16.678 92.91C16.3592 92.2762 15.7105 91.875 14.9999 91.875H8.27612L10.9274 89.2237C11.6249 88.5262 12.5924 88.125 13.5786 88.125H17.9211C19.0649 88.125 20.1336 88.6369 20.848 89.5331L23.2817 92.5744C25.7867 95.7038 29.5217 97.5 33.5324 97.5H86.4674C90.478 97.5 94.213 95.7038 96.718 92.5744L99.1517 89.5331C99.8661 88.6369 100.933 88.125 102.077 88.125H106.419C107.405 88.125 108.373 88.5262 109.07 89.2237L111.724 91.875H105C104.289 91.875 103.64 92.2763 103.322 92.9119L99.5717 100.412C99.3074 100.939 99.3074 101.561 99.5717 102.09L103.322 109.59C103.64 110.224 104.289 110.625 105 110.625H111.724L109.072 113.276Z" fill="#666666" stroke="white" mask="url(#path-4-inside-1_290_1996)"/>
<path d="M54.625 9.625H65.375V12.875H54.625V9.625Z" fill="#666666" stroke="white" stroke-width="0.5"/>
<path d="M37.75 88.375H44.75V91.625H37.75V88.375Z" fill="#666666" stroke="white" stroke-width="0.5"/>
<path d="M75.25 88.375H82.25V91.625H75.25V88.375Z" fill="#666666" stroke="white" stroke-width="0.5"/>
</svg>
