<svg width="56" height="56" viewBox="0 0 56 56" fill="none" xmlns="http://www.w3.org/2000/svg">
<circle cx="28" cy="28" r="28" fill="white"/>
<path fill-rule="evenodd" clip-rule="evenodd" d="M33.3412 15.1836C37.5727 15.1836 40.4159 18.1539 40.4159 22.5744V32.8761C40.4159 37.2966 37.5727 40.2669 33.3412 40.2669H22.4072C18.1757 40.2669 15.3325 37.2966 15.3325 32.8761V22.5744C15.3325 18.1539 18.1757 15.1836 22.4072 15.1836H33.3412ZM33.3412 16.9336H22.4072C19.1732 16.9336 17.0825 19.1468 17.0825 22.5744V32.8761C17.0825 36.3038 19.1732 38.5169 22.4072 38.5169H33.3412C36.5764 38.5169 38.6659 36.3038 38.6659 32.8761V22.5744C38.6659 19.1468 36.5764 16.9336 33.3412 16.9336ZM27.8742 22.5654C28.3572 22.5654 28.7492 22.9574 28.7492 23.4404V26.8386L32.1518 26.8388C32.6348 26.8388 33.0268 27.2308 33.0268 27.7138C33.0268 28.1968 32.6348 28.5888 32.1518 28.5888L28.7492 28.5886V31.9886C28.7492 32.4716 28.3572 32.8636 27.8742 32.8636C27.3912 32.8636 26.9992 32.4716 26.9992 31.9886V28.5886L23.5966 28.5888C23.1124 28.5888 22.7216 28.1968 22.7216 27.7138C22.7216 27.2308 23.1124 26.8388 23.5966 26.8388L26.9992 26.8386V23.4404C26.9992 22.9574 27.3912 22.5654 27.8742 22.5654Z" fill="#1550C0"/>
</svg>
