<svg width="32" height="33" viewBox="0 0 32 33" fill="none" xmlns="http://www.w3.org/2000/svg">
<circle cx="16" cy="16.3887" r="16" fill="#1550C0"/>
<g clip-path="url(#clip0_290_2372)">
<path d="M15.1538 26.3887C13.4314 26.3887 12.0288 24.987 12.0288 23.2637C12.0288 22.9187 12.3088 22.6387 12.6538 22.6387C12.9988 22.6387 13.2788 22.9187 13.2788 23.2637C13.2788 24.2979 14.1205 25.1387 15.1538 25.1387C16.1871 25.1387 17.0288 24.2979 17.0288 23.2637C17.0288 22.9187 17.3088 22.6387 17.6538 22.6387C17.9988 22.6387 18.2788 22.9187 18.2788 23.2637C18.2788 24.987 16.8764 26.3887 15.1538 26.3887Z" fill="white"/>
<path d="M22.0286 23.8887H8.27859C7.47446 23.8887 6.82031 23.2345 6.82031 22.4304C6.82031 22.0036 7.00616 21.5995 7.33026 21.322C7.35117 21.3037 7.3736 21.287 7.39694 21.2719C8.62024 20.2044 9.32031 18.6686 9.32031 17.0469V14.722C9.32031 11.5054 11.9378 8.88867 15.1536 8.88867C15.287 8.88867 15.4312 8.89111 15.5645 8.9137C15.9052 8.97031 16.1353 9.29288 16.0786 9.63284C16.022 9.97281 15.6936 10.2029 15.3594 10.1461C15.2928 10.1353 15.2195 10.1387 15.1536 10.1387C12.627 10.1387 10.5703 12.1945 10.5703 14.722V17.0469C10.5703 19.0603 9.68774 20.9654 8.15118 22.2728C8.13867 22.2828 8.12784 22.292 8.11441 22.3011C8.09198 22.3295 8.07031 22.3729 8.07031 22.4304C8.07031 22.5436 8.16537 22.6387 8.27859 22.6387H22.0286C22.142 22.6387 22.237 22.5436 22.237 22.4304C22.237 22.3719 22.2154 22.3295 22.192 22.3011C22.1795 22.292 22.1687 22.2828 22.1562 22.2728C20.6187 20.9645 19.737 19.0603 19.737 17.0469V16.1387C19.737 15.7937 20.017 15.5137 20.362 15.5137C20.707 15.5137 20.987 15.7937 20.987 16.1387V17.0469C20.987 18.6696 21.6879 20.2061 22.9128 21.2745C22.9353 21.2895 22.9569 21.3054 22.9769 21.3229C23.3012 21.5995 23.487 22.0036 23.487 22.4304C23.487 23.2345 22.8329 23.8887 22.0286 23.8887Z" fill="white"/>
<path d="M20.987 14.722C18.6895 14.722 16.8203 12.8529 16.8203 10.5554C16.8203 8.25787 18.6895 6.38867 20.987 6.38867C23.2845 6.38867 25.1536 8.25787 25.1536 10.5554C25.1536 12.8529 23.2845 14.722 20.987 14.722ZM20.987 7.63867C19.3786 7.63867 18.0703 8.94696 18.0703 10.5554C18.0703 12.1637 19.3786 13.472 20.987 13.472C22.5953 13.472 23.9036 12.1637 23.9036 10.5554C23.9036 8.94696 22.5953 7.63867 20.987 7.63867Z" fill="white"/>
</g>
<defs>
<clipPath id="clip0_290_2372">
<rect width="20" height="20" fill="white" transform="translate(6 6.38867)"/>
</clipPath>
</defs>
</svg>
