<svg width="24" height="25" viewBox="0 0 24 25" fill="none" xmlns="http://www.w3.org/2000/svg">
<path d="M15.9625 4.23944L15.9598 4.2373C14.8053 3.31095 13.0922 3.47874 12.147 4.60871L12.1426 4.61405C12.1417 4.61519 12.1407 4.61641 12.1396 4.61767C12.1383 4.61927 12.1367 4.62114 12.1349 4.62321L2.71954 16.3994L2.71946 16.3995C2.30642 16.9156 2.15624 17.5789 2.30762 18.223C2.30763 18.2231 2.30764 18.2231 2.30764 18.2231L3.12643 21.6932C3.12646 21.6933 3.12649 21.6934 3.12651 21.6936C3.18078 21.92 3.38222 22.0783 3.61327 22.0783H3.62162H3.62327L7.25911 22.0323H7.25923C7.9242 22.0242 8.54138 21.725 8.95309 21.2121C11.0492 18.5898 12.6855 16.5423 13.9631 14.9432L14.3027 14.5181C14.9645 13.6897 15.5223 12.9913 15.9926 12.4024C15.9926 12.4024 15.9926 12.4024 15.9926 12.4024L16.2205 12.1169C16.3331 11.976 16.4399 11.8422 16.5409 11.715L16.5522 11.7008L16.5653 11.6884C16.5846 11.6703 16.6028 11.6502 16.6196 11.6283L16.6199 11.6279C16.6314 11.6129 16.6401 11.5999 16.647 11.5878L16.6568 11.5705L16.6692 11.5549C18.155 9.69339 18.4468 9.32441 18.5123 9.2381C18.5123 9.23805 18.5123 9.23799 18.5124 9.23793L18.5186 9.22969L15.9625 4.23944ZM15.9625 4.23944L16.8431 4.92384L17.4237 5.37499L17.6139 5.52279L17.6671 5.56411L17.6811 5.57499L17.6847 5.57778L17.6856 5.57849L17.6858 5.57866L17.6859 5.57871L17.8393 5.38131L17.6859 5.57872L17.6981 5.58821L17.7114 5.59612C18.2581 5.92162 18.6936 6.51002 18.8589 7.2135L18.859 7.21377C19.0225 7.90636 18.9041 8.61946 18.523 9.22363L15.9625 4.23944ZM11.0463 7.97738L10.8518 7.82808L7.24687 21.0323L7.24427 20.7823L7.2474 21.0323H7.24734C7.60965 21.0284 7.94746 20.8662 8.17206 20.587L8.17256 20.5864L11.4074 16.5388L11.8241 16.0173L11.6288 15.8612L11.8241 16.0173L12.2415 15.4949C13.3461 14.1126 14.4374 12.7468 15.3505 11.6036L15.5095 11.4044L15.3074 11.2492L11.0463 7.97738ZM3.28105 17.9931L3.52427 17.9353L3.28096 17.9927C3.28096 17.9928 3.28097 17.9928 3.28097 17.9928C3.281 17.9929 3.28103 17.993 3.28105 17.9931ZM12.9194 5.24391L12.9193 5.24385L12.9151 5.2491L11.6358 6.84745L11.4764 7.04663L11.6788 7.20198L15.9395 10.4729L16.1341 10.6223L16.2871 10.4306C17.1059 9.405 17.6476 8.72578 17.699 8.65925L17.7071 8.64878L17.7141 8.63752C17.915 8.31161 17.9869 7.86706 17.8865 7.44462C17.7836 7.01064 17.5142 6.64225 17.1297 6.40691C17.1263 6.40433 17.1201 6.39977 17.1106 6.39253L17.0473 6.34432C16.9947 6.30407 16.9231 6.24902 16.8388 6.18401C16.6703 6.05402 16.4515 5.88477 16.2333 5.71568C15.7992 5.37944 15.3694 5.04563 15.3387 5.02149C14.6008 4.43101 13.5221 4.53097 12.9194 5.24391ZM20.7505 21.0782C21.0264 21.0782 21.2505 21.3023 21.2505 21.5782C21.2505 21.8541 21.0264 22.0782 20.7505 22.0782H13.4975C13.2215 22.0782 12.9975 21.8541 12.9975 21.5782C12.9975 21.3023 13.2215 21.0782 13.4975 21.0782H20.7505Z" fill="#666666" stroke="#666666" stroke-width="0.5"/>
</svg>
