<svg xmlns="http://www.w3.org/2000/svg" width="32" height="32" viewBox="0 0 32 32" fill="none">
  <g clip-path="url(#clip0_290_5007)">
    <path d="M30.2393 1.76026C29.0662 0.586825 27.6527 0 26.0001 0H5.99996C4.34734 0 2.93391 0.586825 1.76026 1.76026C0.586825 2.93391 0 4.34726 0 5.99996V25.9999C0 27.6524 0.586825 29.0659 1.76026 30.2396C2.93391 31.4132 4.34734 32.0001 5.99996 32.0001H25.9999C27.6525 32.0001 29.0659 31.4132 30.2391 30.2396C31.4127 29.0659 31.9996 27.6525 31.9996 25.9999V5.99996C31.9995 4.34726 31.4127 2.93369 30.2393 1.76026ZM26.2076 24.2898C25.916 24.9286 25.2598 25.4844 24.2391 25.9569C23.2183 26.4294 22.3118 26.6656 21.5199 26.6656C21.2976 26.6656 21.0614 26.6484 20.8115 26.6137C20.5615 26.5788 20.35 26.5442 20.1764 26.5095C20.0029 26.4748 19.7734 26.4124 19.489 26.322C19.204 26.2319 18.999 26.1622 18.8744 26.1137C18.7491 26.0653 18.5201 25.9784 18.187 25.8535C17.8536 25.7281 17.645 25.6518 17.5622 25.6245C15.2845 24.7907 13.0584 23.2874 10.8849 21.114C8.71146 18.94 7.20791 16.7144 6.37452 14.4371C6.34694 14.3536 6.27054 14.1452 6.14539 13.8121C6.02047 13.479 5.93341 13.2496 5.88482 13.1248C5.83651 12.9998 5.76697 12.7949 5.67663 12.5104C5.58637 12.2256 5.52405 11.9966 5.48925 11.8228C5.45437 11.6494 5.41992 11.4377 5.38512 11.1876C5.35038 10.9376 5.33309 10.7011 5.33309 10.4791C5.33309 9.68736 5.56929 8.78114 6.04163 7.76029C6.51389 6.73959 7.06934 6.08337 7.70834 5.79163C8.44446 5.48596 9.14585 5.33316 9.81258 5.33316C9.96516 5.33316 10.0764 5.34717 10.1457 5.3749C10.2152 5.403 10.3299 5.5277 10.4897 5.74997C10.6495 5.97224 10.823 6.25339 11.0105 6.59372C11.198 6.93413 11.382 7.26402 11.5625 7.58334C11.7431 7.90273 11.9167 8.21854 12.0835 8.53129C12.2501 8.84353 12.3543 9.04172 12.3959 9.12476C12.4375 9.19459 12.5279 9.3263 12.6667 9.52092C12.8054 9.71523 12.9099 9.88861 12.9792 10.0416C13.0485 10.1944 13.0833 10.3402 13.0833 10.4791C13.0833 10.6877 12.9408 10.9411 12.6561 11.2394C12.3713 11.5381 12.0588 11.8125 11.7185 12.0626C11.3781 12.3127 11.0658 12.5801 10.781 12.8648C10.4965 13.1494 10.354 13.382 10.354 13.5626C10.354 13.6599 10.3783 13.7743 10.427 13.9063C10.4756 14.0385 10.5208 14.1461 10.5624 14.2293C10.6041 14.3126 10.6702 14.4307 10.7603 14.5837C10.8506 14.7366 10.9098 14.8337 10.9373 14.8755C11.7011 16.2504 12.5797 17.4345 13.5726 18.4277C14.5658 19.4211 15.7497 20.2992 17.1249 21.0632C17.1663 21.0912 17.2637 21.1501 17.4171 21.2405C17.5697 21.3304 17.688 21.3964 17.7712 21.438C17.8546 21.4797 17.9619 21.5249 18.0941 21.5732C18.2262 21.6216 18.3408 21.6461 18.4384 21.6461C18.66 21.6461 18.9656 21.4171 19.3549 20.9588C19.7437 20.5001 20.1398 20.0454 20.5426 19.5939C20.9451 19.1429 21.2712 18.9172 21.5217 18.9172C21.6605 18.9172 21.8061 18.9517 21.9595 19.0211C22.1123 19.0905 22.2856 19.1949 22.4799 19.3337C22.6746 19.4731 22.8065 19.563 22.876 19.6052L23.9796 20.2088C24.7158 20.5978 25.3304 20.9415 25.8236 21.2401C26.3168 21.5388 26.5842 21.7435 26.626 21.8545C26.6536 21.9239 26.6671 22.0353 26.6671 22.1881C26.6666 22.8542 26.5137 23.5556 26.2076 24.2898Z" fill="#1550C0"/>
  </g>
  <defs>
    <clipPath id="clip0_290_5007">
      <rect width="32" height="32" fill="white"/>
    </clipPath>
  </defs>
</svg>