<svg width="24" height="24" viewBox="0 0 24 24" fill="none" xmlns="http://www.w3.org/2000/svg">
<path d="M9.00159 3.31755C9.03332 3.29968 9.02506 3.28848 9.13652 3.34102C9.24799 3.39382 9.42506 3.53115 9.59892 3.71942C9.94586 4.09915 10.2941 4.67435 10.4755 5.05408C10.4811 5.06662 10.488 5.07755 10.4947 5.08848C11.0061 5.97008 11.2264 6.64342 11.2333 7.06742C11.2405 7.49035 11.1277 7.67302 10.7683 7.87942L9.83866 8.41435C9.23386 8.76235 8.94852 9.38608 8.87759 9.96795C8.80612 10.5501 8.91252 11.1157 9.17146 11.5629L11.4621 15.5111C11.7227 15.9573 12.1627 16.3317 12.7048 16.5615C13.2469 16.7917 13.9325 16.8567 14.5371 16.509L15.4677 15.9767C15.8272 15.7703 16.0416 15.7645 16.4067 15.9821C16.7728 16.1997 17.2477 16.725 17.7592 17.6061C17.7664 17.6189 17.7733 17.6298 17.7816 17.6423C18.0211 17.9874 18.3472 18.5751 18.5045 19.0645C18.5827 19.3082 18.6133 19.5285 18.6035 19.6519C18.5925 19.7741 18.5899 19.7602 18.5576 19.7794L17.8523 20.1842C16.0789 20.9549 14.4544 20.7815 13.0013 20.0263C11.544 19.2709 10.2773 17.9029 9.39572 16.2983C9.39252 16.2954 9.39146 16.2911 9.38852 16.2887L7.45786 12.9599C7.45626 12.9557 7.45359 12.953 7.45226 12.9485C6.49652 11.3869 5.93652 9.61142 6.00586 7.97915C6.07572 6.34928 6.74026 4.86235 8.29919 3.71888L9.00159 3.31755ZM9.56719 2.43222C9.26186 2.28955 8.84106 2.24768 8.49679 2.44608L7.75039 2.87568C7.73332 2.88528 7.71812 2.89515 7.70292 2.90475C5.90559 4.21995 5.07786 6.05062 4.99732 7.93808C4.91599 9.82448 5.54639 11.7714 6.58692 13.4733L8.50826 16.7826C8.50932 16.7826 8.51092 16.7826 8.51092 16.7839L8.51359 16.7925C9.47492 18.5346 10.8531 20.0461 12.5333 20.9191C14.2163 21.7925 16.2213 21.9949 18.2651 21.1037C18.2832 21.0967 18.3 21.0885 18.3165 21.0799L19.0635 20.6506C19.4077 20.4522 19.5816 20.0714 19.6099 19.7373C19.6389 19.4018 19.5709 19.0791 19.4677 18.7586C19.2656 18.1253 18.9157 17.5133 18.6245 17.0901C18.0731 16.145 17.5437 15.4869 16.9293 15.121C16.3107 14.7525 15.568 14.7578 14.9621 15.1058L14.0315 15.6394C13.7571 15.7973 13.4376 15.7805 13.1019 15.6381C12.7648 15.4951 12.4544 15.2085 12.3373 15.0087L10.0467 11.0605C9.93092 10.861 9.83786 10.4493 9.88106 10.089C9.92532 9.72715 10.0701 9.44475 10.3445 9.28662L11.2725 8.75302C11.8787 8.40528 12.2563 7.76928 12.2448 7.05115C12.2323 6.33782 11.9245 5.54902 11.3739 4.59808C11.1509 4.13835 10.7947 3.53142 10.3472 3.04342C10.1203 2.79488 9.87226 2.57488 9.56719 2.43222Z" fill="#666666"/>
</svg>
