<svg xmlns="http://www.w3.org/2000/svg" width="24" height="25" viewBox="0 0 24 25" fill="none">
  <g clip-path="url(#clip0_290_2455)">
    <path d="M23.7728 23.083L17.5764 16.9856C19.199 15.2226 20.196 12.8911 20.196 10.3255C20.1952 4.83719 15.6747 0.388672 10.0979 0.388672C4.52104 0.388672 0.000488281 4.83719 0.000488281 10.3255C0.000488281 15.8138 4.52104 20.2623 10.0979 20.2623C12.5074 20.2623 14.7174 19.4289 16.4534 18.0433L22.6738 24.1647C22.9769 24.4633 23.469 24.4633 23.7721 24.1647C24.0759 23.8662 24.0759 23.3816 23.7728 23.083ZM10.0979 18.7335C5.37926 18.7335 1.55411 14.9691 1.55411 10.3255C1.55411 5.68188 5.37926 1.91751 10.0979 1.91751C14.8165 1.91751 18.6416 5.68188 18.6416 10.3255C18.6416 14.9691 14.8165 18.7335 10.0979 18.7335Z" fill="#1550C0"/>
  </g>
  <defs>
    <clipPath id="clip0_290_2455">
      <rect width="24" height="24" fill="white" transform="translate(0 0.388672)"/>
    </clipPath>
  </defs>
</svg>