<svg xmlns="http://www.w3.org/2000/svg" width="32" height="32" viewBox="0 0 32 32" fill="none">
  <path d="M15.5003 28.7516C15.335 28.7516 15.1775 28.6785 15.0695 28.5514L2.13213 13.1852C1.98251 13.0075 1.95776 12.7555 2.06913 12.553L6.60507 4.29445C6.70407 4.11445 6.89307 4.00195 7.09781 4.00195H23.9028C24.1087 4.00195 24.2977 4.11445 24.3956 4.29445L28.9304 12.553C29.0429 12.7566 29.017 13.0075 28.8674 13.1852L15.9301 28.5514C15.8232 28.6785 15.6657 28.7516 15.5003 28.7516ZM3.24249 12.7555L15.5003 27.3161L27.7582 12.7555L23.5698 5.12694H7.43081L3.24249 12.7555Z" fill="#1550C0"/>
  <path d="M28.1564 13.5644H2.84423C2.53373 13.5644 2.28174 13.3124 2.28174 13.0019C2.28174 12.6914 2.53373 12.4395 2.84423 12.4395H28.1564C28.4669 12.4395 28.7189 12.6914 28.7189 13.0019C28.7189 13.3124 28.4669 13.5644 28.1564 13.5644Z" fill="#1550C0"/>
  <path d="M21.1951 13.2482C21.0185 13.2482 20.8441 13.165 20.735 13.0086L15.5027 5.54656L10.3368 12.9692C10.1613 13.2246 9.80917 13.2865 9.55492 13.1098C9.29843 12.9321 9.23655 12.5822 9.4143 12.3268L15.0392 4.2427C15.1438 4.09195 15.316 4.00195 15.4993 4.00195H15.5005C15.6838 4.00195 15.8548 4.09083 15.9606 4.24157L21.6553 12.3628C21.8341 12.6182 21.7723 12.9681 21.518 13.1458C21.4213 13.2145 21.3076 13.2482 21.1951 13.2482Z" fill="#1550C0"/>
  <path d="M15.5004 28.7513C15.2619 28.7513 15.0504 28.6017 14.9705 28.3778L6.56801 4.75314C6.46451 4.45952 6.61751 4.13777 6.90888 4.03427C7.20363 3.92627 7.52425 4.08265 7.62775 4.37514L15.5004 26.5103L23.373 4.37514C23.4765 4.08377 23.7971 3.92852 24.0919 4.03427C24.3844 4.13777 24.5374 4.45952 24.4328 4.75314L16.0303 28.3778C15.9504 28.6017 15.7389 28.7513 15.5004 28.7513Z" fill="#1550C0"/>
</svg>