<svg width="32" height="32" viewBox="0 0 32 32" fill="none" xmlns="http://www.w3.org/2000/svg">
<path d="M15.5003 28.7511C15.335 28.7511 15.1775 28.678 15.0695 28.5509L2.13213 13.1847C1.98251 13.007 1.95776 12.755 2.06913 12.5525L6.60507 4.29396C6.70407 4.11396 6.89307 4.00146 7.09781 4.00146H23.9028C24.1087 4.00146 24.2977 4.11396 24.3956 4.29396L28.9304 12.5525C29.0429 12.7561 29.017 13.007 28.8674 13.1847L15.9301 28.5509C15.8232 28.678 15.6657 28.7511 15.5003 28.7511ZM3.24249 12.755L15.5003 27.3156L27.7582 12.755L23.5698 5.12645H7.43081L3.24249 12.755Z" fill="#666666"/>
<path d="M28.1564 13.5639H2.84423C2.53373 13.5639 2.28174 13.312 2.28174 13.0015C2.28174 12.691 2.53373 12.439 2.84423 12.439H28.1564C28.4669 12.439 28.7189 12.691 28.7189 13.0015C28.7189 13.312 28.4669 13.5639 28.1564 13.5639Z" fill="#666666"/>
<path d="M21.1951 13.2477C21.0185 13.2477 20.8441 13.1645 20.735 13.0081L15.5027 5.54607L10.3368 12.9687C10.1613 13.2241 9.80917 13.286 9.55492 13.1093C9.29843 12.9316 9.23655 12.5817 9.4143 12.3264L15.0392 4.24221C15.1438 4.09146 15.316 4.00146 15.4993 4.00146H15.5005C15.6838 4.00146 15.8548 4.09034 15.9606 4.24109L21.6553 12.3623C21.8341 12.6177 21.7723 12.9676 21.518 13.1453C21.4213 13.214 21.3076 13.2477 21.1951 13.2477Z" fill="#666666"/>
<path d="M15.5004 28.7513C15.2619 28.7513 15.0504 28.6017 14.9705 28.3778L6.56801 4.75314C6.46451 4.45952 6.61751 4.13777 6.90888 4.03427C7.20363 3.92627 7.52425 4.08265 7.62775 4.37514L15.5004 26.5103L23.373 4.37514C23.4765 4.08377 23.7971 3.92852 24.0919 4.03427C24.3844 4.13777 24.5374 4.45952 24.4328 4.75314L16.0303 28.3778C15.9504 28.6017 15.7389 28.7513 15.5004 28.7513Z" fill="#666666"/>
</svg>
