<svg width="24" height="24" viewBox="0 0 24 24" fill="none" xmlns="http://www.w3.org/2000/svg">
<path d="M24 13.6704C24 10.3921 22.6781 7.41711 20.5399 5.24916C20.5232 5.22697 20.5054 5.20526 20.4852 5.18503C20.465 5.16481 20.4434 5.14703 20.4212 5.13042C18.2532 2.99222 15.2782 1.67041 12 1.67041C8.72176 1.67041 5.74678 2.9923 3.57875 5.13042C3.55656 5.14711 3.53492 5.16489 3.5147 5.18503C3.49448 5.20526 3.4767 5.2269 3.46001 5.24916C1.32189 7.41711 0 10.3921 0 13.6704C0 16.8753 1.24792 19.8882 3.51384 22.1547C3.51415 22.155 3.51447 22.1554 3.51478 22.1557C3.51502 22.1559 3.51517 22.1561 3.51541 22.1563C3.51572 22.1566 3.51604 22.1569 3.51635 22.1572C3.63155 22.2724 3.78256 22.3299 3.93356 22.3299C4.08464 22.3299 4.23572 22.2723 4.35092 22.157C4.36076 22.1472 4.36965 22.1367 4.37862 22.1264L6.19727 20.3076C6.42775 20.0771 6.42775 19.7035 6.19727 19.473C5.96679 19.2426 5.5931 19.2426 5.3627 19.473L3.94348 20.8922C2.28858 19.0507 1.3285 16.733 1.19646 14.2606H3.20357C3.5295 14.2606 3.79373 13.9964 3.79373 13.6704C3.79373 13.3444 3.5295 13.0802 3.20357 13.0802H1.19662C1.33385 10.5408 2.35082 8.23162 3.94733 6.45239L5.3627 7.86776C5.4779 7.98296 5.62898 8.04056 5.77999 8.04056C5.93099 8.04056 6.08207 7.98296 6.19727 7.86776C6.42775 7.6372 6.42775 7.26359 6.19727 7.03311L4.78198 5.61766C6.56129 4.02115 8.8704 3.00418 11.4098 2.86703V4.87406C11.4098 5.20006 11.6741 5.46422 12 5.46422C12.3259 5.46422 12.5902 5.20006 12.5902 4.87406V2.86703C15.1296 3.00418 17.4387 4.02123 19.218 5.61774L17.8027 7.03311C17.5722 7.26367 17.5722 7.63728 17.8027 7.86776C17.9179 7.98296 18.0689 8.04056 18.2199 8.04056C18.3709 8.04056 18.522 7.98296 18.6372 7.86776L20.0526 6.45239C21.6491 8.2317 22.6662 10.5408 22.8033 13.0802H20.7963C20.4703 13.0802 20.2061 13.3444 20.2061 13.6704C20.2061 13.9964 20.4703 14.2606 20.7963 14.2606H22.8034C22.6713 16.733 21.7113 19.0507 20.0564 20.8923L18.6372 19.473C18.4068 19.2426 18.0331 19.2426 17.8027 19.473C17.5722 19.7035 17.5722 20.0772 17.8027 20.3076L19.6507 22.1556C19.7659 22.2708 19.9169 22.3284 20.0679 22.3284C20.1434 22.3284 20.2189 22.314 20.29 22.2852C20.361 22.2564 20.4276 22.2132 20.4853 22.1556C22.7518 19.8891 24 16.8756 24 13.6704Z" fill="#666666"/>
<path d="M6.33623 17.7775C6.52743 18.0417 6.89626 18.1008 7.16032 17.9096L10.8753 15.2208C10.938 15.2704 11.0021 15.3178 11.0693 15.3602C11.7716 15.8038 12.6517 15.8154 13.3662 15.3906C14.113 14.9466 14.5215 14.1105 14.459 13.1543C14.4526 13.0566 14.4301 12.9566 14.3936 12.865C14.1843 12.3392 13.8459 11.9175 13.4152 11.6455C12.7129 11.202 11.8327 11.1904 11.1183 11.6152C10.3715 12.0592 9.96302 12.8952 10.0255 13.8507C10.0318 13.9487 10.0543 14.0489 10.0909 14.1409C10.1105 14.1903 10.1325 14.238 10.1545 14.2855L6.46824 16.9535C6.20427 17.1446 6.14511 17.5135 6.33623 17.7775ZM11.7216 12.6298C12.0525 12.4331 12.46 12.4384 12.785 12.6436C12.9981 12.7782 13.1657 12.9882 13.2832 13.2679C13.3055 13.763 13.1171 14.1656 12.7629 14.3761C12.4321 14.5728 12.0246 14.5675 11.6996 14.3623C11.5959 14.2968 11.5033 14.2132 11.4217 14.1128C11.4192 14.1093 11.4172 14.1055 11.4146 14.1019C11.4065 14.0907 11.3977 14.0802 11.389 14.0698C11.3169 13.9732 11.2539 13.8631 11.2014 13.7381C11.1791 13.243 11.3675 12.8403 11.7216 12.6298Z" fill="#666666"/>
</svg>
